<svg viewBox="0 0 128 128" xml:space="preserve" xmlns="http://www.w3.org/2000/svg"><g fill="#9ca3af" class="fill-232323"><path d="M18.863 86.36h-5.974C7.98 86.36 4 90.326 4 95.218v19.915c0 4.897 3.98 8.86 8.889 8.86h5.974c4.909 0 8.889-3.963 8.889-8.86V95.218c-.001-4.892-3.981-8.858-8.889-8.858zM51.299 63.884h-7.034c-4.907 0-8.887 3.966-8.887 8.858V115.137c0 4.896 3.98 8.859 8.887 8.859h7.034c4.909 0 8.889-3.963 8.889-8.859V72.742c0-4.892-3.98-8.858-8.889-8.858zM83.206 41.401H76.17c-4.905 0-8.886 3.967-8.886 8.86v64.879c0 4.897 3.98 8.86 8.886 8.86h7.036c4.909 0 8.888-3.963 8.888-8.86V50.261c0-4.892-3.979-8.86-8.888-8.86zM115.114 18.922h-7.036c-4.906 0-8.886 3.967-8.886 8.86v87.358c0 4.897 3.979 8.86 8.886 8.86h7.036c4.909 0 8.886-3.963 8.886-8.86V27.782c0-4.893-3.977-8.86-8.886-8.86z"></path></g></svg>