<svg width="1920" height="1080" viewBox="0 0 1920 1080" fill="none" xmlns="http://www.w3.org/2000/svg">
<rect width="1920" height="1080" fill="#F9FAFC"/>
<path d="M437.767 115.841H457.315V123H465.548V115.841H470.599V108.94H465.548V82.2727H454.77L437.767 109.06V115.841ZM457.474 108.94H446.437V108.622L457.156 91.6591H457.474V108.94ZM492.305 123.895C502.547 123.895 508.731 116.099 508.751 102.676C508.771 89.3523 502.507 81.7159 492.305 81.7159C482.083 81.7159 475.879 89.3324 475.859 102.676C475.819 116.06 482.044 123.875 492.305 123.895ZM492.305 116.756C487.632 116.756 484.609 112.062 484.629 102.676C484.649 93.429 487.652 88.7756 492.305 88.7756C496.939 88.7756 499.961 93.429 499.961 102.676C499.981 112.062 496.958 116.756 492.305 116.756ZM514.275 115.841H533.823V123H542.056V115.841H547.107V108.94H542.056V82.2727H531.277L514.275 109.06V115.841ZM533.982 108.94H522.945V108.622L533.664 91.6591H533.982V108.94ZM557.875 102.139C560.421 102.139 562.628 100.011 562.648 97.3665C562.628 94.7614 560.421 92.6335 557.875 92.6335C555.25 92.6335 553.083 94.7614 553.103 97.3665C553.083 100.011 555.25 102.139 557.875 102.139ZM557.875 123.517C560.421 123.517 562.628 121.389 562.648 118.744C562.628 116.139 560.421 114.011 557.875 114.011C555.25 114.011 553.083 116.139 553.103 118.744C553.083 121.389 555.25 123.517 557.875 123.517ZM581.172 89.3722H593.641V123H602.152V89.3722H614.621V82.2727H581.172V89.3722ZM628.442 105.341C628.462 101.403 630.868 99.0966 634.328 99.0966C637.769 99.0966 639.797 101.304 639.777 105.062V123H648.249V103.551C648.269 96.392 644.053 92.0568 637.689 92.0568C633.056 92.0568 629.953 94.2443 628.561 97.8438H628.203V82.2727H619.971V123H628.442V105.341ZM668.836 123.597C676.393 123.597 681.484 119.918 682.677 114.25L674.842 113.733C673.987 116.06 671.799 117.273 668.975 117.273C664.74 117.273 662.055 114.469 662.055 109.915V109.895H682.856V107.568C682.856 97.1875 676.572 92.0568 668.498 92.0568C659.51 92.0568 653.683 98.4403 653.683 107.866C653.683 117.551 659.43 123.597 668.836 123.597ZM662.055 104.645C662.234 101.165 664.879 98.3807 668.637 98.3807C672.316 98.3807 674.862 101.006 674.882 104.645H662.055ZM701.346 134.455H709.817V118.108H710.076C711.249 120.653 713.814 123.497 718.746 123.497C725.706 123.497 731.135 117.989 731.135 107.767C731.135 97.267 725.468 92.0568 718.766 92.0568C713.655 92.0568 711.209 95.0994 710.076 97.5852H709.698V92.4545H701.346V134.455ZM709.638 107.727C709.638 102.278 711.945 98.7983 716.061 98.7983C720.257 98.7983 722.485 102.438 722.485 107.727C722.485 113.057 720.218 116.756 716.061 116.756C711.985 116.756 709.638 113.176 709.638 107.727ZM745.493 123.577C750.007 123.577 752.931 121.608 754.422 118.764H754.661V123H762.695V102.398C762.695 95.1193 756.53 92.0568 749.729 92.0568C742.411 92.0568 737.598 95.5568 736.425 101.125L744.26 101.761C744.837 99.733 746.647 98.2415 749.689 98.2415C752.573 98.2415 754.223 99.6932 754.223 102.199V102.318C754.223 104.287 752.135 104.545 746.826 105.062C740.78 105.619 735.351 107.648 735.351 114.469C735.351 120.514 739.667 123.577 745.493 123.577ZM747.919 117.73C745.314 117.73 743.445 116.517 743.445 114.19C743.445 111.804 745.414 110.631 748.397 110.213C750.246 109.955 753.269 109.517 754.283 108.841V112.082C754.283 115.284 751.638 117.73 747.919 117.73ZM783.029 135.091C791.759 135.091 797.963 131.114 797.963 123.298V92.4545H789.551V97.5852H789.233C788.1 95.0994 785.614 92.0568 780.503 92.0568C773.801 92.0568 768.134 97.267 768.134 107.668C768.134 117.83 773.642 122.562 780.523 122.562C785.395 122.562 788.12 120.116 789.233 117.591H789.591V123.179C789.591 127.375 786.907 129.006 783.228 129.006C779.489 129.006 777.6 127.375 776.904 125.526L769.069 126.58C770.083 131.392 774.796 135.091 783.029 135.091ZM783.208 116.199C779.051 116.199 776.784 112.898 776.784 107.628C776.784 102.438 779.012 98.7983 783.208 98.7983C787.324 98.7983 789.631 102.278 789.631 107.628C789.631 113.017 787.284 116.199 783.208 116.199ZM818.625 123.597C826.182 123.597 831.273 119.918 832.466 114.25L824.631 113.733C823.776 116.06 821.588 117.273 818.765 117.273C814.529 117.273 811.844 114.469 811.844 109.915V109.895H832.645V107.568C832.645 97.1875 826.361 92.0568 818.287 92.0568C809.299 92.0568 803.472 98.4403 803.472 107.866C803.472 117.551 809.219 123.597 818.625 123.597ZM811.844 104.645C812.023 101.165 814.668 98.3807 818.426 98.3807C822.105 98.3807 824.651 101.006 824.671 104.645H811.844ZM856.365 134.455C862.669 134.455 866.01 131.233 867.74 126.301L879.612 92.4943L870.643 92.4545L864.26 114.886H863.941L857.618 92.4545H848.708L859.666 123.875L859.169 125.168C858.055 128.031 855.927 128.17 852.944 127.256L851.035 133.58C852.248 134.097 854.217 134.455 856.365 134.455ZM896.709 123.597C905.976 123.597 911.743 117.253 911.743 107.847C911.743 98.3807 905.976 92.0568 896.709 92.0568C887.442 92.0568 881.675 98.3807 881.675 107.847C881.675 117.253 887.442 123.597 896.709 123.597ZM896.749 117.034C892.473 117.034 890.286 113.116 890.286 107.787C890.286 102.457 892.473 98.5199 896.749 98.5199C900.945 98.5199 903.132 102.457 903.132 107.787C903.132 113.116 900.945 117.034 896.749 117.034ZM936.84 109.994C936.86 114.091 934.056 116.239 931.013 116.239C927.811 116.239 925.743 113.991 925.723 110.392V92.4545H917.252V111.903C917.272 119.043 921.448 123.398 927.593 123.398C932.186 123.398 935.488 121.031 936.86 117.452H937.178V123H945.311V92.4545H936.84V109.994ZM973.759 123.577C978.273 123.577 981.196 121.608 982.688 118.764H982.926V123H990.961V102.398C990.961 95.1193 984.796 92.0568 977.995 92.0568C970.676 92.0568 965.864 95.5568 964.691 101.125L972.526 101.761C973.103 99.733 974.912 98.2415 977.955 98.2415C980.838 98.2415 982.489 99.6932 982.489 102.199V102.318C982.489 104.287 980.401 104.545 975.091 105.062C969.046 105.619 963.617 107.648 963.617 114.469C963.617 120.514 967.932 123.577 973.759 123.577ZM976.185 117.73C973.58 117.73 971.711 116.517 971.711 114.19C971.711 111.804 973.679 110.631 976.662 110.213C978.512 109.955 981.534 109.517 982.549 108.841V112.082C982.549 115.284 979.904 117.73 976.185 117.73ZM997.533 123H1006V105.719C1006 101.96 1008.75 99.375 1012.49 99.375C1013.66 99.375 1015.27 99.5739 1016.07 99.8324V92.3153C1015.31 92.1364 1014.26 92.017 1013.4 92.017C1009.98 92.017 1007.18 94.0057 1006.06 97.7841H1005.75V92.4545H997.533V123ZM1032.95 123.597C1040.5 123.597 1045.59 119.918 1046.79 114.25L1038.95 113.733C1038.1 116.06 1035.91 117.273 1033.08 117.273C1028.85 117.273 1026.16 114.469 1026.16 109.915V109.895H1046.97V107.568C1046.97 97.1875 1040.68 92.0568 1032.61 92.0568C1023.62 92.0568 1017.79 98.4403 1017.79 107.866C1017.79 117.551 1023.54 123.597 1032.95 123.597ZM1026.16 104.645C1026.34 101.165 1028.99 98.3807 1032.75 98.3807C1036.43 98.3807 1038.97 101.006 1038.99 104.645H1026.16ZM1073.93 82.2727H1065.45V123H1073.93V82.2727ZM1094.51 123.597C1103.78 123.597 1109.55 117.253 1109.55 107.847C1109.55 98.3807 1103.78 92.0568 1094.51 92.0568C1085.25 92.0568 1079.48 98.3807 1079.48 107.847C1079.48 117.253 1085.25 123.597 1094.51 123.597ZM1094.55 117.034C1090.28 117.034 1088.09 113.116 1088.09 107.787C1088.09 102.457 1090.28 98.5199 1094.55 98.5199C1098.75 98.5199 1100.94 102.457 1100.94 107.787C1100.94 113.116 1098.75 117.034 1094.55 117.034ZM1128.86 123.597C1138.12 123.597 1143.89 117.253 1143.89 107.847C1143.89 98.3807 1138.12 92.0568 1128.86 92.0568C1119.59 92.0568 1113.82 98.3807 1113.82 107.847C1113.82 117.253 1119.59 123.597 1128.86 123.597ZM1128.9 117.034C1124.62 117.034 1122.43 113.116 1122.43 107.787C1122.43 102.457 1124.62 98.5199 1128.9 98.5199C1133.09 98.5199 1135.28 102.457 1135.28 107.787C1135.28 113.116 1133.09 117.034 1128.9 117.034ZM1149.4 123H1157.87V113.295L1160.16 110.69L1168.49 123H1178.41L1166.5 105.679L1177.84 92.4545H1168.11L1158.33 104.048H1157.87V82.2727H1149.4V123ZM1181.99 123H1190.47V92.4545H1181.99V123ZM1186.25 88.517C1188.78 88.517 1190.84 86.5881 1190.84 84.2216C1190.84 81.875 1188.78 79.946 1186.25 79.946C1183.74 79.946 1181.68 81.875 1181.68 84.2216C1181.68 86.5881 1183.74 88.517 1186.25 88.517ZM1205.72 105.341C1205.74 101.403 1208.09 99.0966 1211.51 99.0966C1214.91 99.0966 1216.96 101.324 1216.94 105.062V123H1225.41V103.551C1225.41 96.4318 1221.23 92.0568 1214.87 92.0568C1210.34 92.0568 1207.06 94.2841 1205.68 97.8438H1205.33V92.4545H1197.25V123H1205.72V105.341ZM1245.85 135.091C1254.58 135.091 1260.78 131.114 1260.78 123.298V92.4545H1252.37V97.5852H1252.05C1250.92 95.0994 1248.43 92.0568 1243.32 92.0568C1236.62 92.0568 1230.95 97.267 1230.95 107.668C1230.95 117.83 1236.46 122.562 1243.34 122.562C1248.22 122.562 1250.94 120.116 1252.05 117.591H1252.41V123.179C1252.41 127.375 1249.73 129.006 1246.05 129.006C1242.31 129.006 1240.42 127.375 1239.72 125.526L1231.89 126.58C1232.9 131.392 1237.62 135.091 1245.85 135.091ZM1246.03 116.199C1241.87 116.199 1239.6 112.898 1239.6 107.628C1239.6 102.438 1241.83 98.7983 1246.03 98.7983C1250.14 98.7983 1252.45 102.278 1252.45 107.628C1252.45 113.017 1250.1 116.199 1246.03 116.199ZM1296.91 92.4545H1290.85V90.4062C1290.85 88.3381 1291.68 87.125 1294.17 87.125C1295.18 87.125 1296.22 87.3438 1296.89 87.5625L1298.38 81.1989C1297.33 80.8807 1295 80.3636 1292.4 80.3636C1286.65 80.3636 1282.38 83.6051 1282.38 90.2472V92.4545H1278.06V98.8182H1282.38V123H1290.85V98.8182H1296.91V92.4545ZM1314.8 123.597C1324.06 123.597 1329.83 117.253 1329.83 107.847C1329.83 98.3807 1324.06 92.0568 1314.8 92.0568C1305.53 92.0568 1299.76 98.3807 1299.76 107.847C1299.76 117.253 1305.53 123.597 1314.8 123.597ZM1314.83 117.034C1310.56 117.034 1308.37 113.116 1308.37 107.787C1308.37 102.457 1310.56 98.5199 1314.83 98.5199C1319.03 98.5199 1321.22 102.457 1321.22 107.787C1321.22 113.116 1319.03 117.034 1314.83 117.034ZM1335.34 123H1343.81V105.719C1343.81 101.96 1346.55 99.375 1350.29 99.375C1351.47 99.375 1353.08 99.5739 1353.87 99.8324V92.3153C1353.12 92.1364 1352.06 92.017 1351.21 92.017C1347.79 92.017 1344.98 94.0057 1343.87 97.7841H1343.55V92.4545H1335.34V123ZM1371.21 123H1379.68V92.4545H1371.21V123ZM1375.47 88.517C1377.99 88.517 1380.06 86.5881 1380.06 84.2216C1380.06 81.875 1377.99 79.946 1375.47 79.946C1372.96 79.946 1370.89 81.875 1370.89 84.2216C1370.89 86.5881 1372.96 88.517 1375.47 88.517ZM1411.89 101.165C1411.13 95.5369 1406.6 92.0568 1398.88 92.0568C1391.06 92.0568 1385.91 95.6761 1385.93 101.562C1385.91 106.136 1388.8 109.099 1394.76 110.293L1400.05 111.347C1402.72 111.884 1403.93 112.858 1403.97 114.389C1403.93 116.199 1401.96 117.491 1399 117.491C1395.98 117.491 1393.97 116.199 1393.45 113.713L1385.12 114.151C1385.91 119.997 1390.89 123.597 1398.98 123.597C1406.89 123.597 1412.56 119.56 1412.58 113.534C1412.56 109.119 1409.68 106.474 1403.75 105.261L1398.22 104.148C1395.38 103.531 1394.33 102.557 1394.35 101.085C1394.33 99.2557 1396.39 98.0625 1399.02 98.0625C1401.96 98.0625 1403.71 99.6733 1404.13 101.642L1411.89 101.165ZM1426.39 105.341C1426.41 101.403 1428.75 99.0966 1432.17 99.0966C1435.57 99.0966 1437.62 101.324 1437.6 105.062V123H1446.07V103.551C1446.07 96.4318 1441.9 92.0568 1435.54 92.0568C1431 92.0568 1427.72 94.2841 1426.35 97.8438H1425.99V92.4545H1417.92V123H1426.39V105.341ZM1459.85 82.2727H1453.49V86.608C1453.49 89.9688 1452.29 92.4148 1450.96 94.5227L1454.7 96.7301C1457.5 94.3835 1459.85 90.2074 1459.85 86.5682V82.2727ZM1482.78 92.4545H1477.03V85.1364H1468.56V92.4545H1464.39V98.8182H1468.56V114.727C1468.52 120.713 1472.6 123.676 1478.74 123.418C1480.93 123.338 1482.48 122.901 1483.34 122.622L1482 116.318C1481.59 116.398 1480.69 116.597 1479.9 116.597C1478.21 116.597 1477.03 115.96 1477.03 113.614V98.8182H1482.78V92.4545ZM910.165 182.341C910.185 178.403 912.591 176.097 916.051 176.097C919.491 176.097 921.52 178.304 921.5 182.062V200H929.972V180.551C929.991 173.392 925.776 169.057 919.412 169.057C914.778 169.057 911.676 171.244 910.284 174.844H909.926V159.273H901.693V200H910.165V182.341ZM950.559 200.597C958.116 200.597 963.207 196.918 964.4 191.25L956.565 190.733C955.71 193.06 953.522 194.273 950.698 194.273C946.462 194.273 943.778 191.469 943.778 186.915V186.895H964.579V184.568C964.579 174.188 958.295 169.057 950.221 169.057C941.232 169.057 935.406 175.44 935.406 184.866C935.406 194.551 941.153 200.597 950.559 200.597ZM943.778 181.645C943.957 178.165 946.602 175.381 950.36 175.381C954.039 175.381 956.585 178.006 956.604 181.645H943.778ZM970.107 200H978.579V182.719C978.579 178.96 981.323 176.375 985.062 176.375C986.235 176.375 987.846 176.574 988.641 176.832V169.315C987.886 169.136 986.832 169.017 985.977 169.017C982.556 169.017 979.752 171.006 978.638 174.784H978.32V169.455H970.107V200ZM1005.52 200.597C1013.08 200.597 1018.17 196.918 1019.36 191.25L1011.53 190.733C1010.67 193.06 1008.48 194.273 1005.66 194.273C1001.42 194.273 998.739 191.469 998.739 186.915V186.895H1019.54V184.568C1019.54 174.188 1013.26 169.057 1005.18 169.057C996.193 169.057 990.366 175.44 990.366 184.866C990.366 194.551 996.114 200.597 1005.52 200.597ZM998.739 181.645C998.918 178.165 1001.56 175.381 1005.32 175.381C1009 175.381 1011.55 178.006 1011.57 181.645H998.739Z" fill="#111827"/>
<path d="M613.895 245.818L617.589 252.003V256H619.12V252.003L622.814 245.818H621.069L618.409 250.447H618.299L615.64 245.818H613.895ZM626.117 256.154C628.27 256.154 629.677 254.578 629.677 252.217C629.677 249.84 628.27 248.264 626.117 248.264C623.965 248.264 622.558 249.84 622.558 252.217C622.558 254.578 623.965 256.154 626.117 256.154ZM626.122 254.906C624.715 254.906 624.059 253.678 624.059 252.212C624.059 250.75 624.715 249.507 626.122 249.507C627.519 249.507 628.176 250.75 628.176 252.212C628.176 253.678 627.519 254.906 626.122 254.906ZM636.174 252.833C636.179 254.131 635.214 254.747 634.379 254.747C633.459 254.747 632.823 254.081 632.823 253.042V248.364H631.336V253.221C631.336 255.115 632.375 256.099 633.842 256.099C634.99 256.099 635.771 255.493 636.124 254.678H636.203V256H637.665V248.364H636.174V252.833ZM646.659 256.154C648.324 256.154 649.502 255.334 649.84 254.091L648.434 253.837C648.165 254.558 647.519 254.926 646.674 254.926C645.401 254.926 644.546 254.101 644.506 252.629H649.935V252.102C649.935 249.343 648.284 248.264 646.554 248.264C644.426 248.264 643.024 249.885 643.024 252.232C643.024 254.603 644.407 256.154 646.659 256.154ZM644.511 251.516C644.571 250.432 645.356 249.492 646.564 249.492C647.718 249.492 648.473 250.347 648.478 251.516H644.511ZM651.584 256H653.071V248.364H651.584V256ZM652.335 247.185C652.847 247.185 653.275 246.788 653.275 246.3C653.275 245.813 652.847 245.411 652.335 245.411C651.818 245.411 651.395 245.813 651.395 246.3C651.395 246.788 651.818 247.185 652.335 247.185ZM658.635 248.364H657.069V246.534H655.583V248.364H654.464V249.557H655.583V254.066C655.578 255.453 656.637 256.124 657.81 256.099C658.282 256.094 658.6 256.005 658.774 255.94L658.506 254.712C658.407 254.732 658.223 254.777 657.984 254.777C657.502 254.777 657.069 254.618 657.069 253.758V249.557H658.635V248.364ZM661.93 251.466C661.93 250.248 662.701 249.552 663.76 249.552C664.784 249.552 665.395 250.203 665.395 251.322V256H666.882V251.143C666.882 249.239 665.838 248.264 664.267 248.264C663.079 248.264 662.363 248.781 662.005 249.607H661.91V245.818H660.444V256H661.93V251.466ZM672.157 256.154C673.822 256.154 675 255.334 675.339 254.091L673.932 253.837C673.663 254.558 673.017 254.926 672.172 254.926C670.899 254.926 670.044 254.101 670.004 252.629H675.433V252.102C675.433 249.343 673.782 248.264 672.052 248.264C669.924 248.264 668.522 249.885 668.522 252.232C668.522 254.603 669.905 256.154 672.157 256.154ZM670.009 251.516C670.069 250.432 670.854 249.492 672.062 249.492C673.216 249.492 673.971 250.347 673.976 251.516H670.009ZM677.082 256H678.569V251.337C678.569 250.337 679.339 249.616 680.393 249.616C680.702 249.616 681.05 249.671 681.169 249.706V248.284C681.02 248.264 680.726 248.249 680.538 248.249C679.643 248.249 678.877 248.756 678.599 249.577H678.519V248.364H677.082V256ZM689.725 248.364H688.159V246.534H686.672V248.364H685.554V249.557H686.672V254.066C686.668 255.453 687.726 256.124 688.9 256.099C689.372 256.094 689.69 256.005 689.864 255.94L689.596 254.712C689.496 254.732 689.312 254.777 689.074 254.777C688.592 254.777 688.159 254.618 688.159 253.758V249.557H689.725V248.364ZM691.369 256H692.856V251.337C692.856 250.337 693.627 249.616 694.68 249.616C694.989 249.616 695.337 249.671 695.456 249.706V248.284C695.307 248.264 695.014 248.249 694.825 248.249C693.93 248.249 693.164 248.756 692.886 249.577H692.806V248.364H691.369V256ZM696.742 256H698.229V248.364H696.742V256ZM697.493 247.185C698.005 247.185 698.433 246.788 698.433 246.3C698.433 245.813 698.005 245.411 697.493 245.411C696.976 245.411 696.554 245.813 696.554 246.3C696.554 246.788 696.976 247.185 697.493 247.185ZM703.52 256.154C705.185 256.154 706.364 255.334 706.702 254.091L705.295 253.837C705.026 254.558 704.38 254.926 703.535 254.926C702.262 254.926 701.407 254.101 701.367 252.629H706.796V252.102C706.796 249.343 705.146 248.264 703.416 248.264C701.288 248.264 699.886 249.885 699.886 252.232C699.886 254.603 701.268 256.154 703.52 256.154ZM701.372 251.516C701.432 250.432 702.217 249.492 703.426 249.492C704.579 249.492 705.335 250.347 705.34 251.516H701.372ZM711.304 256.149C712.696 256.149 713.243 255.299 713.512 254.812H713.636V256H715.088V245.818H713.601V249.602H713.512C713.243 249.129 712.736 248.264 711.314 248.264C709.47 248.264 708.112 249.721 708.112 252.197C708.112 254.668 709.45 256.149 711.304 256.149ZM711.632 254.881C710.305 254.881 709.614 253.713 709.614 252.182C709.614 250.665 710.29 249.527 711.632 249.527C712.93 249.527 713.626 250.586 713.626 252.182C713.626 253.788 712.915 254.881 711.632 254.881ZM726.637 250.228C726.328 249.04 725.399 248.264 723.748 248.264C722.023 248.264 720.8 249.174 720.8 250.526C720.8 251.61 721.456 252.331 722.888 252.649L724.181 252.933C724.916 253.097 725.259 253.425 725.259 253.902C725.259 254.494 724.628 254.956 723.654 254.956C722.764 254.956 722.192 254.573 722.013 253.822L720.576 254.041C720.825 255.393 721.948 256.154 723.664 256.154C725.508 256.154 726.786 255.175 726.786 253.793C726.786 252.714 726.1 252.048 724.698 251.724L723.485 251.446C722.644 251.247 722.282 250.964 722.286 250.447C722.282 249.86 722.918 249.442 723.763 249.442C724.688 249.442 725.115 249.955 725.289 250.467L726.637 250.228ZM731.637 256.154C733.79 256.154 735.196 254.578 735.196 252.217C735.196 249.84 733.79 248.264 731.637 248.264C729.484 248.264 728.077 249.84 728.077 252.217C728.077 254.578 729.484 256.154 731.637 256.154ZM731.642 254.906C730.235 254.906 729.579 253.678 729.579 252.212C729.579 250.75 730.235 249.507 731.642 249.507C733.039 249.507 733.695 250.75 733.695 252.212C733.695 253.678 733.039 254.906 731.642 254.906ZM736.856 256H738.342V251.292C738.342 250.263 739.063 249.547 739.908 249.547C740.734 249.547 741.305 250.094 741.305 250.924V256H742.787V251.133C742.787 250.213 743.349 249.547 744.318 249.547C745.104 249.547 745.75 249.984 745.75 251.018V256H747.236V250.879C747.236 249.134 746.262 248.264 744.88 248.264C743.781 248.264 742.956 248.791 742.588 249.607H742.508C742.175 248.771 741.474 248.264 740.455 248.264C739.446 248.264 738.695 248.766 738.377 249.607H738.283V248.364H736.856V256ZM752.52 256.154C754.185 256.154 755.364 255.334 755.702 254.091L754.295 253.837C754.026 254.558 753.38 254.926 752.535 254.926C751.262 254.926 750.407 254.101 750.367 252.629H755.796V252.102C755.796 249.343 754.146 248.264 752.416 248.264C750.288 248.264 748.886 249.885 748.886 252.232C748.886 254.603 750.268 256.154 752.52 256.154ZM750.372 251.516C750.432 250.432 751.217 249.492 752.426 249.492C753.579 249.492 754.335 250.347 754.34 251.516H750.372ZM766.873 250.228C766.565 249.04 765.635 248.264 763.984 248.264C762.259 248.264 761.036 249.174 761.036 250.526C761.036 251.61 761.693 252.331 763.124 252.649L764.417 252.933C765.153 253.097 765.496 253.425 765.496 253.902C765.496 254.494 764.864 254.956 763.89 254.956C763 254.956 762.428 254.573 762.249 253.822L760.813 254.041C761.061 255.393 762.185 256.154 763.9 256.154C765.744 256.154 767.022 255.175 767.022 253.793C767.022 252.714 766.336 252.048 764.934 251.724L763.721 251.446C762.881 251.247 762.518 250.964 762.523 250.447C762.518 249.86 763.154 249.442 763.999 249.442C764.924 249.442 765.352 249.955 765.526 250.467L766.873 250.228ZM770.143 251.466C770.143 250.248 770.914 249.552 771.973 249.552C772.997 249.552 773.608 250.203 773.608 251.322V256H775.095V251.143C775.095 249.239 774.051 248.264 772.48 248.264C771.291 248.264 770.576 248.781 770.218 249.607H770.123V245.818H768.657V256H770.143V251.466ZM779.301 256.169C780.563 256.169 781.274 255.528 781.558 254.956H781.617V256H783.069V250.929C783.069 248.707 781.319 248.264 780.106 248.264C778.724 248.264 777.451 248.821 776.954 250.213L778.351 250.531C778.57 249.989 779.127 249.467 780.126 249.467C781.085 249.467 781.578 249.969 781.578 250.835V250.869C781.578 251.411 781.021 251.401 779.649 251.56C778.202 251.729 776.72 252.107 776.72 253.842C776.72 255.344 777.849 256.169 779.301 256.169ZM779.624 254.976C778.784 254.976 778.177 254.598 778.177 253.862C778.177 253.067 778.883 252.783 779.743 252.669C780.225 252.604 781.369 252.475 781.583 252.261V253.246C781.583 254.151 780.862 254.976 779.624 254.976ZM787.908 256.149C789.3 256.149 789.847 255.299 790.115 254.812H790.239V256H791.691V245.818H790.205V249.602H790.115C789.847 249.129 789.34 248.264 787.918 248.264C786.073 248.264 784.716 249.721 784.716 252.197C784.716 254.668 786.053 256.149 787.908 256.149ZM788.236 254.881C786.908 254.881 786.217 253.713 786.217 252.182C786.217 250.665 786.894 249.527 788.236 249.527C789.533 249.527 790.229 250.586 790.229 252.182C790.229 253.788 789.519 254.881 788.236 254.881ZM794.752 258.864C795.98 258.864 796.756 258.222 797.198 257.019L800.355 248.379L798.75 248.364L796.816 254.29H796.736L794.802 248.364H793.211L796.005 256.099L795.821 256.607C795.443 257.621 794.911 257.705 794.096 257.482L793.738 258.7C793.917 258.779 794.305 258.864 794.752 258.864ZM805.461 256H806.948V251.337C806.948 250.337 807.718 249.616 808.772 249.616C809.081 249.616 809.429 249.671 809.548 249.706V248.284C809.399 248.264 809.105 248.249 808.916 248.249C808.022 248.249 807.256 248.756 806.978 249.577H806.898V248.364H805.461V256ZM813.777 256.154C815.93 256.154 817.337 254.578 817.337 252.217C817.337 249.84 815.93 248.264 813.777 248.264C811.625 248.264 810.218 249.84 810.218 252.217C810.218 254.578 811.625 256.154 813.777 256.154ZM813.782 254.906C812.375 254.906 811.719 253.678 811.719 252.212C811.719 250.75 812.375 249.507 813.782 249.507C815.179 249.507 815.836 250.75 815.836 252.212C815.836 253.678 815.179 254.906 813.782 254.906ZM823.834 252.833C823.839 254.131 822.874 254.747 822.039 254.747C821.119 254.747 820.483 254.081 820.483 253.042V248.364H818.996V253.221C818.996 255.115 820.035 256.099 821.502 256.099C822.65 256.099 823.431 255.493 823.784 254.678H823.864V256H825.325V248.364H823.834V252.833ZM830.887 248.364H829.321V246.534H827.835V248.364H826.716V249.557H827.835V254.066C827.83 255.453 828.889 256.124 830.062 256.099C830.534 256.094 830.852 256.005 831.026 255.94L830.758 254.712C830.658 254.732 830.475 254.777 830.236 254.777C829.754 254.777 829.321 254.618 829.321 253.758V249.557H830.887V248.364ZM835.741 256.154C837.406 256.154 838.584 255.334 838.922 254.091L837.516 253.837C837.247 254.558 836.601 254.926 835.756 254.926C834.483 254.926 833.628 254.101 833.588 252.629H839.017V252.102C839.017 249.343 837.366 248.264 835.636 248.264C833.508 248.264 832.106 249.885 832.106 252.232C832.106 254.603 833.489 256.154 835.741 256.154ZM833.593 251.516C833.653 250.432 834.438 249.492 835.646 249.492C836.8 249.492 837.555 250.347 837.56 251.516H833.593ZM847.588 256.154C849.741 256.154 851.148 254.578 851.148 252.217C851.148 249.84 849.741 248.264 847.588 248.264C845.435 248.264 844.028 249.84 844.028 252.217C844.028 254.578 845.435 256.154 847.588 256.154ZM847.593 254.906C846.186 254.906 845.53 253.678 845.53 252.212C845.53 250.75 846.186 249.507 847.593 249.507C848.99 249.507 849.646 250.75 849.646 252.212C849.646 253.678 848.99 254.906 847.593 254.906ZM852.807 256H854.293V251.337C854.293 250.337 855.064 249.616 856.118 249.616C856.426 249.616 856.774 249.671 856.894 249.706V248.284C856.744 248.264 856.451 248.249 856.262 248.249C855.367 248.249 854.602 248.756 854.323 249.577H854.244V248.364H852.807V256ZM862.825 258.864C864.053 258.864 864.828 258.222 865.271 257.019L868.428 248.379L866.822 248.364L864.888 254.29H864.808L862.874 248.364H861.283L864.078 256.099L863.894 256.607C863.516 257.621 862.984 257.705 862.168 257.482L861.81 258.7C861.989 258.779 862.377 258.864 862.825 258.864ZM872.772 256.154C874.924 256.154 876.331 254.578 876.331 252.217C876.331 249.84 874.924 248.264 872.772 248.264C870.619 248.264 869.212 249.84 869.212 252.217C869.212 254.578 870.619 256.154 872.772 256.154ZM872.777 254.906C871.37 254.906 870.713 253.678 870.713 252.212C870.713 250.75 871.37 249.507 872.777 249.507C874.174 249.507 874.83 250.75 874.83 252.212C874.83 253.678 874.174 254.906 872.777 254.906ZM882.828 252.833C882.833 254.131 881.868 254.747 881.033 254.747C880.113 254.747 879.477 254.081 879.477 253.042V248.364H877.991V253.221C877.991 255.115 879.03 256.099 880.496 256.099C881.645 256.099 882.425 255.493 882.778 254.678H882.858V256H884.319V248.364H882.828V252.833ZM893.238 256.154C895.043 256.154 896.211 255.07 896.375 253.584H894.929C894.74 254.409 894.098 254.896 893.248 254.896C891.991 254.896 891.18 253.847 891.18 252.182C891.18 250.546 892.005 249.517 893.248 249.517C894.193 249.517 894.77 250.114 894.929 250.83H896.375C896.216 249.288 894.959 248.264 893.223 248.264C891.071 248.264 889.679 249.885 889.679 252.217C889.679 254.518 891.021 256.154 893.238 256.154ZM900.187 256.169C901.45 256.169 902.161 255.528 902.445 254.956H902.504V256H903.956V250.929C903.956 248.707 902.206 248.264 900.993 248.264C899.611 248.264 898.338 248.821 897.841 250.213L899.238 250.531C899.457 249.989 900.013 249.467 901.013 249.467C901.972 249.467 902.464 249.969 902.464 250.835V250.869C902.464 251.411 901.908 251.401 900.535 251.56C899.089 251.729 897.607 252.107 897.607 253.842C897.607 255.344 898.736 256.169 900.187 256.169ZM900.511 254.976C899.67 254.976 899.064 254.598 899.064 253.862C899.064 253.067 899.77 252.783 900.63 252.669C901.112 252.604 902.256 252.475 902.469 252.261V253.246C902.469 254.151 901.748 254.976 900.511 254.976ZM905.936 256H907.422V251.292C907.422 250.263 908.143 249.547 908.988 249.547C909.814 249.547 910.385 250.094 910.385 250.924V256H911.867V251.133C911.867 250.213 912.429 249.547 913.398 249.547C914.184 249.547 914.83 249.984 914.83 251.018V256H916.316V250.879C916.316 249.134 915.342 248.264 913.96 248.264C912.861 248.264 912.036 248.791 911.668 249.607H911.589C911.255 248.771 910.554 248.264 909.535 248.264C908.526 248.264 907.775 248.766 907.457 249.607H907.363V248.364H905.936V256ZM921.6 256.154C923.266 256.154 924.444 255.334 924.782 254.091L923.375 253.837C923.106 254.558 922.46 254.926 921.615 254.926C920.342 254.926 919.487 254.101 919.447 252.629H924.876V252.102C924.876 249.343 923.226 248.264 921.496 248.264C919.368 248.264 917.966 249.885 917.966 252.232C917.966 254.603 919.348 256.154 921.6 256.154ZM919.452 251.516C919.512 250.432 920.297 249.492 921.506 249.492C922.659 249.492 923.415 250.347 923.42 251.516H919.452ZM931.717 251.466C931.717 250.248 932.488 249.552 933.547 249.552C934.571 249.552 935.182 250.203 935.182 251.322V256H936.669V251.143C936.669 249.239 935.625 248.264 934.054 248.264C932.866 248.264 932.15 248.781 931.792 249.607H931.697V245.818H930.231V256H931.717V251.466ZM941.944 256.154C943.609 256.154 944.788 255.334 945.126 254.091L943.719 253.837C943.45 254.558 942.804 254.926 941.959 254.926C940.686 254.926 939.831 254.101 939.791 252.629H945.22V252.102C945.22 249.343 943.57 248.264 941.839 248.264C939.712 248.264 938.31 249.885 938.31 252.232C938.31 254.603 939.692 256.154 941.944 256.154ZM939.796 251.516C939.856 250.432 940.641 249.492 941.849 249.492C943.003 249.492 943.758 250.347 943.763 251.516H939.796ZM946.869 256H948.356V251.337C948.356 250.337 949.127 249.616 950.18 249.616C950.489 249.616 950.837 249.671 950.956 249.706V248.284C950.807 248.264 950.514 248.249 950.325 248.249C949.43 248.249 948.664 248.756 948.386 249.577H948.306V248.364H946.869V256ZM955.26 256.154C956.926 256.154 958.104 255.334 958.442 254.091L957.035 253.837C956.767 254.558 956.12 254.926 955.275 254.926C954.002 254.926 953.147 254.101 953.108 252.629H958.536V252.102C958.536 249.343 956.886 248.264 955.156 248.264C953.028 248.264 951.626 249.885 951.626 252.232C951.626 254.603 953.008 256.154 955.26 256.154ZM953.112 251.516C953.172 250.432 953.958 249.492 955.166 249.492C956.319 249.492 957.075 250.347 957.08 251.516H953.112ZM964.01 256H965.462V254.812H965.586C965.855 255.299 966.402 256.149 967.794 256.149C969.643 256.149 970.985 254.668 970.985 252.197C970.985 249.721 969.623 248.264 967.779 248.264C966.362 248.264 965.85 249.129 965.586 249.602H965.497V245.818H964.01V256ZM965.467 252.182C965.467 250.586 966.163 249.527 967.46 249.527C968.808 249.527 969.484 250.665 969.484 252.182C969.484 253.713 968.788 254.881 967.46 254.881C966.183 254.881 965.467 253.788 965.467 252.182ZM973.321 258.864C974.549 258.864 975.324 258.222 975.767 257.019L978.924 248.379L977.318 248.364L975.384 254.29H975.304L973.37 248.364H971.78L974.574 256.099L974.39 256.607C974.012 257.621 973.48 257.705 972.665 257.482L972.307 258.7C972.486 258.779 972.873 258.864 973.321 258.864ZM984.03 256H985.516V251.292C985.516 250.263 986.237 249.547 987.082 249.547C987.907 249.547 988.479 250.094 988.479 250.924V256H989.961V251.133C989.961 250.213 990.522 249.547 991.492 249.547C992.277 249.547 992.924 249.984 992.924 251.018V256H994.41V250.879C994.41 249.134 993.436 248.264 992.054 248.264C990.955 248.264 990.13 248.791 989.762 249.607H989.682C989.349 248.771 988.648 248.264 987.629 248.264C986.62 248.264 985.869 248.766 985.551 249.607H985.456V248.364H984.03V256ZM996.403 256H997.889V248.364H996.403V256ZM997.153 247.185C997.665 247.185 998.093 246.788 998.093 246.3C998.093 245.813 997.665 245.411 997.153 245.411C996.636 245.411 996.214 245.813 996.214 246.3C996.214 246.788 996.636 247.185 997.153 247.185ZM1005.61 250.228C1005.3 249.04 1004.37 248.264 1002.72 248.264C1001 248.264 999.775 249.174 999.775 250.526C999.775 251.61 1000.43 252.331 1001.86 252.649L1003.16 252.933C1003.89 253.097 1004.23 253.425 1004.23 253.902C1004.23 254.494 1003.6 254.956 1002.63 254.956C1001.74 254.956 1001.17 254.573 1000.99 253.822L999.551 254.041C999.799 255.393 1000.92 256.154 1002.64 256.154C1004.48 256.154 1005.76 255.175 1005.76 253.793C1005.76 252.714 1005.07 252.048 1003.67 251.724L1002.46 251.446C1001.62 251.247 1001.26 250.964 1001.26 250.447C1001.26 249.86 1001.89 249.442 1002.74 249.442C1003.66 249.442 1004.09 249.955 1004.26 250.467L1005.61 250.228ZM1010.96 248.364H1009.39V246.534H1007.91V248.364H1006.79V249.557H1007.91V254.066C1007.9 255.453 1008.96 256.124 1010.13 256.099C1010.61 256.094 1010.92 256.005 1011.1 255.94L1010.83 254.712C1010.73 254.732 1010.55 254.777 1010.31 254.777C1009.83 254.777 1009.39 254.618 1009.39 253.758V249.557H1010.96V248.364ZM1014.83 256.169C1016.09 256.169 1016.8 255.528 1017.08 254.956H1017.14V256H1018.59V250.929C1018.59 248.707 1016.84 248.264 1015.63 248.264C1014.25 248.264 1012.98 248.821 1012.48 250.213L1013.88 250.531C1014.1 249.989 1014.65 249.467 1015.65 249.467C1016.61 249.467 1017.1 249.969 1017.1 250.835V250.869C1017.1 251.411 1016.55 251.401 1015.17 251.56C1013.73 251.729 1012.25 252.107 1012.25 253.842C1012.25 255.344 1013.37 256.169 1014.83 256.169ZM1015.15 254.976C1014.31 254.976 1013.7 254.598 1013.7 253.862C1013.7 253.067 1014.41 252.783 1015.27 252.669C1015.75 252.604 1016.89 252.475 1017.11 252.261V253.246C1017.11 254.151 1016.39 254.976 1015.15 254.976ZM1020.57 256H1022.06V253.29L1022.8 252.55L1025.4 256H1027.22L1023.92 251.64L1027.01 248.364H1025.23L1022.19 251.595H1022.06V245.818H1020.57V256ZM1031.34 256.154C1033.01 256.154 1034.19 255.334 1034.53 254.091L1033.12 253.837C1032.85 254.558 1032.2 254.926 1031.36 254.926C1030.09 254.926 1029.23 254.101 1029.19 252.629H1034.62V252.102C1034.62 249.343 1032.97 248.264 1031.24 248.264C1029.11 248.264 1027.71 249.885 1027.71 252.232C1027.71 254.603 1029.09 256.154 1031.34 256.154ZM1029.2 251.516C1029.26 250.432 1030.04 249.492 1031.25 249.492C1032.4 249.492 1033.16 250.347 1033.16 251.516H1029.2ZM1037.25 256.094C1037.79 256.094 1038.24 255.652 1038.24 255.1C1038.24 254.558 1037.79 254.111 1037.25 254.111C1036.7 254.111 1036.25 254.558 1036.25 255.1C1036.25 255.652 1036.7 256.094 1037.25 256.094ZM1045.89 256H1047.44L1049.58 248.374H1049.66L1051.8 256H1053.35L1056.18 245.818H1054.56L1052.58 253.708H1052.49L1050.42 245.818H1048.82L1046.76 253.703H1046.66L1044.68 245.818H1043.06L1045.89 256ZM1058.95 251.466C1058.95 250.248 1059.72 249.552 1060.78 249.552C1061.8 249.552 1062.41 250.203 1062.41 251.322V256H1063.9V251.143C1063.9 249.239 1062.86 248.264 1061.28 248.264C1060.1 248.264 1059.38 248.781 1059.02 249.607H1058.93V245.818H1057.46V256H1058.95V251.466ZM1065.88 256H1067.37V248.364H1065.88V256ZM1066.63 247.185C1067.15 247.185 1067.57 246.788 1067.57 246.3C1067.57 245.813 1067.15 245.411 1066.63 245.411C1066.12 245.411 1065.69 245.813 1065.69 246.3C1065.69 246.788 1066.12 247.185 1066.63 247.185ZM1072.59 256.154C1074.39 256.154 1075.56 255.07 1075.72 253.584H1074.28C1074.09 254.409 1073.45 254.896 1072.6 254.896C1071.34 254.896 1070.53 253.847 1070.53 252.182C1070.53 250.546 1071.35 249.517 1072.6 249.517C1073.54 249.517 1074.12 250.114 1074.28 250.83H1075.72C1075.56 249.288 1074.31 248.264 1072.57 248.264C1070.42 248.264 1069.03 249.885 1069.03 252.217C1069.03 254.518 1070.37 256.154 1072.59 256.154ZM1078.8 251.466C1078.8 250.248 1079.57 249.552 1080.63 249.552C1081.65 249.552 1082.26 250.203 1082.26 251.322V256H1083.75V251.143C1083.75 249.239 1082.71 248.264 1081.14 248.264C1079.95 248.264 1079.23 248.781 1078.87 249.607H1078.78V245.818H1077.31V256H1078.8V251.466ZM1089.03 256.154C1090.69 256.154 1091.87 255.334 1092.21 254.091L1090.8 253.837C1090.53 254.558 1089.89 254.926 1089.04 254.926C1087.77 254.926 1086.91 254.101 1086.87 252.629H1092.3V252.102C1092.3 249.343 1090.65 248.264 1088.92 248.264C1086.79 248.264 1085.39 249.885 1085.39 252.232C1085.39 254.603 1086.77 256.154 1089.03 256.154ZM1086.88 251.516C1086.94 250.432 1087.72 249.492 1088.93 249.492C1090.08 249.492 1090.84 250.347 1090.85 251.516H1086.88ZM1100.25 248.364H1098.66L1096.73 254.24H1096.65L1094.71 248.364H1093.12L1095.89 256H1097.48L1100.25 248.364ZM1104.67 256.154C1106.33 256.154 1107.51 255.334 1107.85 254.091L1106.44 253.837C1106.17 254.558 1105.53 254.926 1104.68 254.926C1103.41 254.926 1102.55 254.101 1102.51 252.629H1107.94V252.102C1107.94 249.343 1106.29 248.264 1104.56 248.264C1102.43 248.264 1101.03 249.885 1101.03 252.232C1101.03 254.603 1102.41 256.154 1104.67 256.154ZM1102.52 251.516C1102.58 250.432 1103.36 249.492 1104.57 249.492C1105.73 249.492 1106.48 250.347 1106.49 251.516H1102.52ZM1109.59 256H1111.08V251.337C1111.08 250.337 1111.85 249.616 1112.9 249.616C1113.21 249.616 1113.56 249.671 1113.68 249.706V248.284C1113.53 248.264 1113.24 248.249 1113.05 248.249C1112.15 248.249 1111.39 248.756 1111.11 249.577H1111.03V248.364H1109.59V256ZM1118.67 256H1120.16V248.364H1118.67V256ZM1119.42 247.185C1119.93 247.185 1120.36 246.788 1120.36 246.3C1120.36 245.813 1119.93 245.411 1119.42 245.411C1118.9 245.411 1118.48 245.813 1118.48 246.3C1118.48 246.788 1118.9 247.185 1119.42 247.185ZM1125.72 248.364H1124.16V246.534H1122.67V248.364H1121.55V249.557H1122.67V254.066C1122.66 255.453 1123.72 256.124 1124.9 256.099C1125.37 256.094 1125.69 256.005 1125.86 255.94L1125.59 254.712C1125.49 254.732 1125.31 254.777 1125.07 254.777C1124.59 254.777 1124.16 254.618 1124.16 253.758V249.557H1125.72V248.364ZM1131.07 256H1132.56V248.364H1131.07V256ZM1131.82 247.185C1132.33 247.185 1132.76 246.788 1132.76 246.3C1132.76 245.813 1132.33 245.411 1131.82 245.411C1131.3 245.411 1130.88 245.813 1130.88 246.3C1130.88 246.788 1131.3 247.185 1131.82 247.185ZM1140.28 250.228C1139.97 249.04 1139.04 248.264 1137.39 248.264C1135.67 248.264 1134.44 249.174 1134.44 250.526C1134.44 251.61 1135.1 252.331 1136.53 252.649L1137.82 252.933C1138.56 253.097 1138.9 253.425 1138.9 253.902C1138.9 254.494 1138.27 254.956 1137.3 254.956C1136.41 254.956 1135.83 254.573 1135.66 253.822L1134.22 254.041C1134.47 255.393 1135.59 256.154 1137.31 256.154C1139.15 256.154 1140.43 255.175 1140.43 253.793C1140.43 252.714 1139.74 252.048 1138.34 251.724L1137.13 251.446C1136.29 251.247 1135.92 250.964 1135.93 250.447C1135.92 249.86 1136.56 249.442 1137.41 249.442C1138.33 249.442 1138.76 249.955 1138.93 250.467L1140.28 250.228ZM1144 254.608H1142.56L1142.52 255.165C1142.4 256.512 1142.08 257.869 1141.95 258.486H1143C1143.24 257.835 1143.77 256.343 1143.92 255.15L1144 254.608ZM1153.2 248.364H1151.64V246.534H1150.15V248.364H1149.03V249.557H1150.15V254.066C1150.14 255.453 1151.2 256.124 1152.38 256.099C1152.85 256.094 1153.17 256.005 1153.34 255.94L1153.07 254.712C1152.97 254.732 1152.79 254.777 1152.55 254.777C1152.07 254.777 1151.64 254.618 1151.64 253.758V249.557H1153.2V248.364ZM1154.85 256H1156.33V251.337C1156.33 250.337 1157.1 249.616 1158.16 249.616C1158.47 249.616 1158.81 249.671 1158.93 249.706V248.284C1158.78 248.264 1158.49 248.249 1158.3 248.249C1157.41 248.249 1156.64 248.756 1156.36 249.577H1156.28V248.364H1154.85V256ZM1161.39 258.864C1162.62 258.864 1163.39 258.222 1163.84 257.019L1166.99 248.379L1165.39 248.364L1163.45 254.29H1163.37L1161.44 248.364H1159.85L1162.64 256.099L1162.46 256.607C1162.08 257.621 1161.55 257.705 1160.73 257.482L1160.38 258.7C1160.56 258.779 1160.94 258.864 1161.39 258.864ZM1176.94 252.833C1176.94 254.131 1175.98 254.747 1175.14 254.747C1174.22 254.747 1173.59 254.081 1173.59 253.042V248.364H1172.1V253.221C1172.1 255.115 1173.14 256.099 1174.61 256.099C1175.75 256.099 1176.53 255.493 1176.89 254.678H1176.97V256H1178.43V248.364H1176.94V252.833ZM1186.15 250.228C1185.84 249.04 1184.91 248.264 1183.26 248.264C1181.53 248.264 1180.31 249.174 1180.31 250.526C1180.31 251.61 1180.97 252.331 1182.4 252.649L1183.69 252.933C1184.43 253.097 1184.77 253.425 1184.77 253.902C1184.77 254.494 1184.14 254.956 1183.17 254.956C1182.28 254.956 1181.7 254.573 1181.52 253.822L1180.09 254.041C1180.34 255.393 1181.46 256.154 1183.18 256.154C1185.02 256.154 1186.3 255.175 1186.3 253.793C1186.3 252.714 1185.61 252.048 1184.21 251.724L1183 251.446C1182.16 251.247 1181.79 250.964 1181.8 250.447C1181.79 249.86 1182.43 249.442 1183.27 249.442C1184.2 249.442 1184.63 249.955 1184.8 250.467L1186.15 250.228ZM1187.93 256H1189.42V248.364H1187.93V256ZM1188.68 247.185C1189.19 247.185 1189.62 246.788 1189.62 246.3C1189.62 245.813 1189.19 245.411 1188.68 245.411C1188.17 245.411 1187.74 245.813 1187.74 246.3C1187.74 246.788 1188.17 247.185 1188.68 247.185ZM1192.9 251.466C1192.9 250.248 1193.65 249.552 1194.68 249.552C1195.69 249.552 1196.31 250.213 1196.31 251.322V256H1197.79V251.143C1197.79 249.254 1196.75 248.264 1195.19 248.264C1194.04 248.264 1193.29 248.796 1192.94 249.607H1192.85V248.364H1191.42V256H1192.9V251.466ZM1202.99 259.023C1204.93 259.023 1206.43 258.133 1206.43 256.169V248.364H1204.98V249.602H1204.87C1204.6 249.129 1204.08 248.264 1202.65 248.264C1200.81 248.264 1199.45 249.721 1199.45 252.152C1199.45 254.588 1200.84 255.886 1202.64 255.886C1204.05 255.886 1204.59 255.095 1204.86 254.608H1204.95V256.109C1204.95 257.308 1204.13 257.825 1203 257.825C1201.76 257.825 1201.28 257.203 1201.02 256.766L1199.74 257.293C1200.14 258.227 1201.16 259.023 1202.99 259.023ZM1202.97 254.653C1201.64 254.653 1200.95 253.634 1200.95 252.132C1200.95 250.665 1201.63 249.527 1202.97 249.527C1204.27 249.527 1204.97 250.586 1204.97 252.132C1204.97 253.708 1204.25 254.653 1202.97 254.653ZM1215.7 248.364H1214.13V246.534H1212.64V248.364H1211.52V249.557H1212.64V254.066C1212.64 255.453 1213.7 256.124 1214.87 256.099C1215.34 256.094 1215.66 256.005 1215.83 255.94L1215.57 254.712C1215.47 254.732 1215.28 254.777 1215.04 254.777C1214.56 254.777 1214.13 254.618 1214.13 253.758V249.557H1215.7V248.364ZM1218.99 251.466C1218.99 250.248 1219.76 249.552 1220.82 249.552C1221.84 249.552 1222.46 250.203 1222.46 251.322V256H1223.94V251.143C1223.94 249.239 1222.9 248.264 1221.33 248.264C1220.14 248.264 1219.42 248.781 1219.07 249.607H1218.97V245.818H1217.5V256H1218.99V251.466ZM1229.22 256.154C1230.88 256.154 1232.06 255.334 1232.4 254.091L1230.99 253.837C1230.72 254.558 1230.08 254.926 1229.23 254.926C1227.96 254.926 1227.1 254.101 1227.06 252.629H1232.49V252.102C1232.49 249.343 1230.84 248.264 1229.11 248.264C1226.98 248.264 1225.58 249.885 1225.58 252.232C1225.58 254.603 1226.97 256.154 1229.22 256.154ZM1227.07 251.516C1227.13 250.432 1227.91 249.492 1229.12 249.492C1230.28 249.492 1231.03 250.347 1231.04 251.516H1227.07ZM1239.33 251.466C1239.33 250.248 1240.08 249.552 1241.11 249.552C1242.12 249.552 1242.73 250.213 1242.73 251.322V256H1244.22V251.143C1244.22 249.254 1243.18 248.264 1241.62 248.264C1240.47 248.264 1239.72 248.796 1239.37 249.607H1239.27V248.364H1237.85V256H1239.33V251.466ZM1248.44 256.169C1249.7 256.169 1250.41 255.528 1250.69 254.956H1250.75V256H1252.21V250.929C1252.21 248.707 1250.46 248.264 1249.24 248.264C1247.86 248.264 1246.59 248.821 1246.09 250.213L1247.49 250.531C1247.71 249.989 1248.26 249.467 1249.26 249.467C1250.22 249.467 1250.71 249.969 1250.71 250.835V250.869C1250.71 251.411 1250.16 251.401 1248.79 251.56C1247.34 251.729 1245.86 252.107 1245.86 253.842C1245.86 255.344 1246.99 256.169 1248.44 256.169ZM1248.76 254.976C1247.92 254.976 1247.31 254.598 1247.31 253.862C1247.31 253.067 1248.02 252.783 1248.88 252.669C1249.36 252.604 1250.51 252.475 1250.72 252.261V253.246C1250.72 254.151 1250 254.976 1248.76 254.976ZM1260.45 248.364H1258.85L1256.92 254.24H1256.84L1254.91 248.364H1253.31L1256.08 256H1257.68L1260.45 248.364ZM1261.84 256H1263.33V248.364H1261.84V256ZM1262.59 247.185C1263.1 247.185 1263.53 246.788 1263.53 246.3C1263.53 245.813 1263.1 245.411 1262.59 245.411C1262.08 245.411 1261.65 245.813 1261.65 246.3C1261.65 246.788 1262.08 247.185 1262.59 247.185ZM1268.53 259.023C1270.47 259.023 1271.98 258.133 1271.98 256.169V248.364H1270.52V249.602H1270.41C1270.15 249.129 1269.62 248.264 1268.2 248.264C1266.35 248.264 1265 249.721 1265 252.152C1265 254.588 1266.38 255.886 1268.19 255.886C1269.59 255.886 1270.13 255.095 1270.4 254.608H1270.49V256.109C1270.49 257.308 1269.67 257.825 1268.55 257.825C1267.31 257.825 1266.82 257.203 1266.56 256.766L1265.28 257.293C1265.69 258.227 1266.71 259.023 1268.53 259.023ZM1268.52 254.653C1267.19 254.653 1266.5 253.634 1266.5 252.132C1266.5 250.665 1267.17 249.527 1268.52 249.527C1269.81 249.527 1270.51 250.586 1270.51 252.132C1270.51 253.708 1269.8 254.653 1268.52 254.653ZM1276.19 256.169C1277.45 256.169 1278.17 255.528 1278.45 254.956H1278.51V256H1279.96V250.929C1279.96 248.707 1278.21 248.264 1277 248.264C1275.61 248.264 1274.34 248.821 1273.84 250.213L1275.24 250.531C1275.46 249.989 1276.02 249.467 1277.02 249.467C1277.98 249.467 1278.47 249.969 1278.47 250.835V250.869C1278.47 251.411 1277.91 251.401 1276.54 251.56C1275.09 251.729 1273.61 252.107 1273.61 253.842C1273.61 255.344 1274.74 256.169 1276.19 256.169ZM1276.51 254.976C1275.67 254.976 1275.07 254.598 1275.07 253.862C1275.07 253.067 1275.77 252.783 1276.63 252.669C1277.12 252.604 1278.26 252.475 1278.47 252.261V253.246C1278.47 254.151 1277.75 254.976 1276.51 254.976ZM1285.5 248.364H1283.94V246.534H1282.45V248.364H1281.33V249.557H1282.45V254.066C1282.45 255.453 1283.51 256.124 1284.68 256.099C1285.15 256.094 1285.47 256.005 1285.64 255.94L1285.38 254.712C1285.28 254.732 1285.09 254.777 1284.85 254.777C1284.37 254.777 1283.94 254.618 1283.94 253.758V249.557H1285.5V248.364ZM1287.15 256H1288.64V248.364H1287.15V256ZM1287.9 247.185C1288.41 247.185 1288.84 246.788 1288.84 246.3C1288.84 245.813 1288.41 245.411 1287.9 245.411C1287.38 245.411 1286.96 245.813 1286.96 246.3C1286.96 246.788 1287.38 247.185 1287.9 247.185ZM1293.85 256.154C1296 256.154 1297.41 254.578 1297.41 252.217C1297.41 249.84 1296 248.264 1293.85 248.264C1291.7 248.264 1290.29 249.84 1290.29 252.217C1290.29 254.578 1291.7 256.154 1293.85 256.154ZM1293.86 254.906C1292.45 254.906 1291.79 253.678 1291.79 252.212C1291.79 250.75 1292.45 249.507 1293.86 249.507C1295.25 249.507 1295.91 250.75 1295.91 252.212C1295.91 253.678 1295.25 254.906 1293.86 254.906ZM1300.56 251.466C1300.56 250.248 1301.3 249.552 1302.34 249.552C1303.35 249.552 1303.96 250.213 1303.96 251.322V256H1305.44V251.143C1305.44 249.254 1304.41 248.264 1302.84 248.264C1301.7 248.264 1300.94 248.796 1300.59 249.607H1300.5V248.364H1299.07V256H1300.56V251.466Z" fill="#111827"/>
<g clip-path="url(#clip0_29036_5946)">
<path d="M963.447 910.231C1254.78 910.231 1490.95 894.596 1490.95 875.309C1490.95 856.023 1254.78 840.388 963.447 840.388C672.117 840.388 435.947 856.023 435.947 875.309C435.947 894.596 672.117 910.231 963.447 910.231Z" fill="#F2F2F2"/>
<path d="M943.229 493.01C857.285 493.01 795.578 548.149 795.578 676.808C795.578 822.621 857.285 861.218 943.229 861.218C1029.17 861.218 1094.56 818.945 1094.56 676.808C1094.56 524.868 1029.17 493.01 943.229 493.01ZM943.794 812.818C884.267 812.818 853.168 777.895 853.168 676.902C853.168 587.79 885.54 540.797 945.067 540.797C1004.59 540.797 1036.97 571.665 1036.97 676.902C1036.97 775.349 1003.32 812.818 943.794 812.818Z" fill="#2F2E41"/>
<path d="M744.115 759.517H708.581V654.877C708.581 649.32 706.373 643.989 702.443 640.059C698.513 636.129 693.183 633.922 687.625 633.922H679.299C676.547 633.922 673.822 634.464 671.279 635.517C668.737 636.57 666.427 638.113 664.481 640.059C662.535 642.005 660.991 644.315 659.938 646.858C658.885 649.4 658.343 652.125 658.343 654.877V759.517H558.113C556.051 759.517 554.024 758.984 552.229 757.97C550.433 756.955 548.931 755.494 547.866 753.728C546.802 751.962 546.212 749.951 546.154 747.89C546.096 745.829 546.572 743.788 547.535 741.965L653.618 541.184C654.94 538.681 655.742 535.936 655.974 533.114C656.206 530.293 655.865 527.453 654.969 524.768C654.074 522.082 652.644 519.605 650.765 517.487C648.886 515.37 646.597 513.654 644.037 512.446L637.775 509.488C632.912 507.192 627.353 506.853 622.248 508.541C617.142 510.23 612.881 513.816 610.346 518.558L480.964 760.591C478.761 764.712 477.608 769.314 477.608 773.987C477.608 777.719 478.343 781.414 479.771 784.861C481.199 788.309 483.293 791.441 485.931 794.08C488.57 796.719 491.702 798.812 495.15 800.24C498.598 801.668 502.293 802.403 506.024 802.403H658.343V868.57C658.343 871.869 658.993 875.135 660.255 878.183C661.517 881.23 663.368 883.999 665.7 886.332C668.033 888.664 670.802 890.515 673.849 891.777C676.897 893.039 680.163 893.689 683.462 893.689H683.462C686.761 893.689 690.027 893.039 693.075 891.777C696.122 890.515 698.891 888.664 701.224 886.332C703.556 883.999 705.407 881.23 706.669 878.183C707.931 875.135 708.581 871.869 708.581 868.57V802.403H744.115C749.802 802.403 755.257 800.144 759.278 796.122C763.299 792.101 765.558 786.647 765.558 780.96C765.558 775.273 763.299 769.819 759.278 765.797C755.257 761.776 749.802 759.517 744.115 759.517Z" fill="#6C63FF"/>
<path d="M1402.11 759.517H1366.58V654.877C1366.58 649.32 1364.37 643.989 1360.44 640.059C1356.51 636.129 1351.18 633.922 1345.62 633.922H1337.29C1334.54 633.922 1331.82 634.464 1329.28 635.517C1326.73 636.57 1324.42 638.113 1322.48 640.059C1320.53 642.005 1318.99 644.315 1317.93 646.858C1316.88 649.4 1316.34 652.125 1316.34 654.877V759.517H1216.11C1214.05 759.517 1212.02 758.984 1210.22 757.97C1208.43 756.955 1206.93 755.494 1205.86 753.728C1204.8 751.962 1204.21 749.951 1204.15 747.89C1204.09 745.829 1204.57 743.788 1205.53 741.965L1311.61 541.184C1312.94 538.681 1313.74 535.936 1313.97 533.114C1314.2 530.293 1313.86 527.453 1312.97 524.768C1312.07 522.082 1310.64 519.605 1308.76 517.487C1306.88 515.37 1304.59 513.654 1302.03 512.446L1295.77 509.488C1290.91 507.192 1285.35 506.853 1280.24 508.541C1275.14 510.23 1270.88 513.816 1268.34 518.558L1138.96 760.591C1136.76 764.712 1135.6 769.314 1135.6 773.987C1135.6 781.523 1138.6 788.751 1143.93 794.08C1149.26 799.409 1156.48 802.403 1164.02 802.403H1316.34V868.57C1316.34 875.232 1318.99 881.621 1323.7 886.332C1328.41 891.043 1334.8 893.689 1341.46 893.689C1348.12 893.689 1354.51 891.043 1359.22 886.332C1363.93 881.621 1366.58 875.232 1366.58 868.57V802.403H1402.11C1407.8 802.403 1413.25 800.144 1417.27 796.122C1421.3 792.101 1423.55 786.647 1423.55 780.96C1423.55 775.273 1421.3 769.819 1417.27 765.797C1413.25 761.776 1407.8 759.517 1402.11 759.517Z" fill="#6C63FF"/>
<path d="M753.917 747.264H718.383V642.624C718.383 639.872 717.841 637.147 716.788 634.605C715.735 632.062 714.191 629.752 712.245 627.806C710.299 625.86 707.989 624.317 705.446 623.263C702.904 622.21 700.179 621.668 697.427 621.668H689.101C683.543 621.668 678.213 623.876 674.283 627.806C670.353 631.736 668.145 637.066 668.145 642.624V747.264H567.915C565.853 747.264 563.826 746.731 562.031 745.716C560.235 744.702 558.733 743.241 557.668 741.475C556.604 739.709 556.014 737.698 555.956 735.637C555.898 733.576 556.374 731.535 557.337 729.712L663.419 528.931C664.742 526.428 665.544 523.683 665.776 520.861C666.008 518.04 665.666 515.2 664.771 512.514C663.876 509.828 662.445 507.352 660.567 505.234C658.688 503.116 656.399 501.401 653.839 500.192L647.577 497.235C642.714 494.939 637.155 494.6 632.049 496.288C626.944 497.976 622.683 501.563 620.147 506.305L490.766 748.338C488.563 752.459 487.41 757.06 487.41 761.734V761.734C487.41 769.27 490.404 776.498 495.733 781.827C501.062 787.156 508.29 790.15 515.826 790.15H668.145V856.317C668.145 859.616 668.794 862.882 670.057 865.93C671.319 868.977 673.169 871.746 675.502 874.079C677.834 876.411 680.604 878.262 683.651 879.524C686.699 880.786 689.965 881.436 693.264 881.436H693.264C699.926 881.436 706.315 878.789 711.026 874.079C715.736 869.368 718.383 862.979 718.383 856.317V790.15H753.917C756.733 790.15 759.521 789.595 762.123 788.517C764.725 787.44 767.088 785.86 769.08 783.869C771.071 781.878 772.65 779.514 773.728 776.913C774.806 774.311 775.36 771.523 775.36 768.707V768.707C775.36 765.891 774.806 763.102 773.728 760.501C772.65 757.899 771.071 755.535 769.08 753.544C767.089 751.553 764.725 749.973 762.123 748.896C759.521 747.818 756.733 747.264 753.917 747.264V747.264Z" stroke="#3F3D56" stroke-miterlimit="10"/>
<path d="M1420.49 747.264H1384.96V642.624C1384.96 637.066 1382.75 631.736 1378.82 627.806C1374.89 623.876 1369.56 621.668 1364 621.668H1355.67C1352.92 621.668 1350.2 622.21 1347.66 623.263C1345.11 624.317 1342.8 625.86 1340.86 627.806C1338.91 629.752 1337.37 632.062 1336.31 634.605C1335.26 637.147 1334.72 639.872 1334.72 642.624V747.264H1234.49C1232.43 747.264 1230.4 746.731 1228.6 745.716C1226.81 744.702 1225.31 743.241 1224.24 741.475C1223.18 739.709 1222.59 737.698 1222.53 735.637C1222.47 733.576 1222.95 731.535 1223.91 729.712L1329.99 528.931C1331.32 526.428 1332.12 523.683 1332.35 520.861C1332.58 518.04 1332.24 515.2 1331.35 512.514C1330.45 509.828 1329.02 507.352 1327.14 505.234C1325.26 503.116 1322.97 501.401 1320.41 500.192L1314.15 497.235C1309.29 494.939 1303.73 494.6 1298.62 496.288C1293.52 497.976 1289.26 501.563 1286.72 506.305L1157.34 748.338C1155.14 752.459 1153.98 757.06 1153.98 761.734C1153.98 769.27 1156.98 776.498 1162.31 781.827C1167.64 787.156 1174.86 790.15 1182.4 790.15H1334.72V856.317C1334.72 862.979 1337.37 869.368 1342.08 874.079C1346.79 878.789 1353.18 881.436 1359.84 881.436V881.436C1366.5 881.436 1372.89 878.789 1377.6 874.079C1382.31 869.368 1384.96 862.979 1384.96 856.317V790.15H1420.49C1423.31 790.15 1426.1 789.595 1428.7 788.517C1431.3 787.44 1433.66 785.86 1435.65 783.869C1437.64 781.878 1439.22 779.514 1440.3 776.913C1441.38 774.311 1441.93 771.523 1441.93 768.707V768.707C1441.93 763.02 1439.68 757.565 1435.65 753.544C1431.63 749.523 1426.18 747.264 1420.49 747.264V747.264Z" stroke="#3F3D56" stroke-miterlimit="10"/>
<path d="M962.835 481.982C876.89 481.982 815.184 537.121 815.184 665.78C815.184 811.593 876.89 850.19 962.835 850.19C1048.78 850.19 1114.16 807.917 1114.16 665.78C1114.16 513.84 1048.78 481.982 962.835 481.982ZM963.4 801.79C903.873 801.79 872.774 766.867 872.774 665.874C872.774 576.762 905.146 529.769 964.673 529.769C1024.2 529.769 1056.57 560.637 1056.57 665.874C1056.57 764.321 1022.93 801.79 963.4 801.79V801.79Z" stroke="#3F3D56" stroke-miterlimit="10"/>
<path d="M893.945 357.152C901.07 357.152 906.846 351.376 906.846 344.25C906.846 337.125 901.07 331.349 893.945 331.349C886.82 331.349 881.044 337.125 881.044 344.25C881.044 351.376 886.82 357.152 893.945 357.152Z" fill="#2F2E41"/>
<path d="M925.411 419.77C945.396 419.77 961.597 398.779 961.597 372.885C961.597 346.991 945.396 326 925.411 326C905.426 326 889.225 346.991 889.225 372.885C889.225 398.779 905.426 419.77 925.411 419.77Z" fill="#2F2E41"/>
<path opacity="0.1" d="M925.411 405.61C907.283 405.61 892.27 388.339 889.635 365.805C889.361 368.155 889.224 370.519 889.225 372.885C889.225 398.778 905.426 419.77 925.411 419.77C945.396 419.77 961.597 398.779 961.597 372.885C961.598 370.519 961.461 368.155 961.187 365.805C958.552 388.339 943.538 405.61 925.411 405.61Z" fill="black"/>
<path d="M999.046 510.189C998.269 513.382 994.918 515.94 991.207 517.727C983.405 521.483 973.782 522.605 964.447 522.981C962.066 523.126 959.677 523.081 957.303 522.849C952.702 522.404 948.386 520.42 945.052 517.217C944.814 517.062 944.619 516.849 944.486 516.599C944.353 516.348 944.285 516.067 944.289 515.783C944.294 515.499 944.37 515.221 944.511 514.975C944.652 514.728 944.853 514.521 945.096 514.374C950.065 508.915 958.358 505.567 966.712 503.157C973.046 501.33 984.093 496.597 991.002 497.235C997.694 497.854 1000.03 506.157 999.046 510.189Z" fill="#3F3D56"/>
<path opacity="0.1" d="M999.046 510.189C998.269 513.382 994.918 515.94 991.207 517.727C983.405 521.483 973.782 522.605 964.447 522.981C962.066 523.126 959.677 523.081 957.303 522.849C952.702 522.404 948.386 520.42 945.052 517.217C944.814 517.062 944.619 516.849 944.486 516.599C944.353 516.348 944.285 516.067 944.289 515.783C944.294 515.499 944.37 515.221 944.511 514.975C944.652 514.728 944.853 514.521 945.096 514.374C950.065 508.915 958.358 505.567 966.712 503.157C973.046 501.33 984.093 496.597 991.002 497.235C997.694 497.854 1000.03 506.157 999.046 510.189Z" fill="black"/>
<path d="M899.847 486.321C897.466 490.989 897.035 496.411 898.649 501.396C900.29 506.344 903.363 510.693 907.478 513.893C917.573 521.985 931.466 523.098 944.403 522.986C955.741 522.887 967.063 522.111 978.308 520.662C982.076 520.328 985.779 519.468 989.309 518.108C993.532 516.281 997.242 512.93 998.745 508.582C1000.25 504.234 999.182 498.909 995.612 496.008C992.475 493.458 988.149 493.107 984.114 492.865L961.026 491.477C963.307 489.169 966.344 487.863 969.122 486.185C972.807 483.959 975.256 480.22 977.935 476.85C982.064 471.916 986.556 467.297 991.374 463.033C992.125 467.344 994.852 470.883 998.061 473.857C1001.27 476.831 1004.97 479.226 1008.3 482.057C1016.38 488.916 1022.2 498.224 1030.7 504.558C1036.54 503.022 1042.01 500.294 1046.75 496.546L1043.44 490.564C1043.17 489.949 1042.74 489.414 1042.2 489.011C1041.26 488.436 1040.06 488.733 1038.97 488.57C1036.07 488.135 1034.81 484.786 1033.67 482.083C1030.54 474.661 1024.56 468.903 1019.45 462.679C1015.68 458.084 1012.33 453.157 1009.45 447.956C1007.74 444.854 1006.17 441.625 1003.84 438.953C1001.51 436.281 998.243 434.18 994.698 434.172C991.566 434.166 988.677 435.756 985.984 437.355C977.782 442.227 969.89 447.604 962.354 453.454C958.41 456.516 954.491 459.751 949.865 461.628C947.917 462.419 945.864 462.959 943.996 463.92C940.722 465.605 938.238 468.455 935.564 470.985C926.027 480.008 912.969 485.854 899.847 486.321Z" fill="#3F3D56"/>
<path d="M948.123 422.098C948.016 424.856 947.429 427.575 946.389 430.131C945.862 431.407 945.078 432.56 944.086 433.518C943.093 434.477 941.914 435.221 940.622 435.704C938.786 436.196 936.862 436.258 934.998 435.887C933.374 435.717 931.808 435.183 930.417 434.326C928.252 432.837 927.173 430.182 926.779 427.583C926.386 424.987 926.562 422.334 926.311 419.719C926.065 417.607 925.664 415.516 925.109 413.464C924.939 412.781 924.766 412.101 924.596 411.422C924.429 410.742 924.265 410.062 924.114 409.383C923.976 408.744 923.847 408.102 923.737 407.457C923.645 406.912 923.564 406.365 923.504 405.814C923.449 404.182 923.177 402.564 922.695 401.003C922.243 399.991 921.677 399.033 921.009 398.149C920.722 397.74 920.445 397.331 920.19 396.906C919.453 395.802 919.111 394.482 919.218 393.158C919.248 392.954 919.298 392.753 919.366 392.557C919.391 392.482 919.419 392.406 919.451 392.334C919.734 392.257 919.994 392.112 920.208 391.912C920.423 391.712 920.585 391.463 920.681 391.185C920.79 390.59 920.739 389.977 920.533 389.408C920.298 388.612 919.976 387.845 919.574 387.12C919.309 386.642 918.413 385.78 918.406 385.232C918.394 384.131 920.546 383.243 921.418 382.809C924.078 381.477 927.045 380.875 930.014 381.066C931.918 381.195 933.982 381.78 935.033 383.376C935.977 384.814 935.851 386.676 936.254 388.347C936.296 388.59 936.399 388.818 936.553 389.011C936.758 389.198 937.017 389.317 937.292 389.351C937.758 389.444 938.236 389.463 938.708 389.408H938.712C938.836 389.398 938.96 389.38 939.083 389.354C939.818 389.218 940.513 388.918 941.116 388.476C941.506 388.372 941.899 388.287 942.296 388.221C942.312 388.22 942.327 388.217 942.343 388.212C943.919 393.187 944.124 398.52 945.414 403.586C946.053 406.107 946.968 408.596 947.097 411.189C947.107 411.302 947.11 411.418 947.113 411.535C947.132 412.369 947.066 413.209 947.1 414.039C947.113 414.413 947.155 414.786 947.226 415.153C947.367 415.744 947.543 416.326 947.752 416.897L947.761 416.925C947.821 417.107 947.878 417.293 947.925 417.479C947.959 417.614 947.991 417.746 948.016 417.881L948.019 417.891C948.252 419.281 948.287 420.698 948.123 422.098Z" fill="#FBBEBE"/>
<path d="M926.041 389.562C936.294 389.562 944.606 381.25 944.606 370.997C944.606 360.744 936.294 352.432 926.041 352.432C915.787 352.432 907.476 360.744 907.476 370.997C907.476 381.25 915.787 389.562 926.041 389.562Z" fill="#FBBEBE"/>
<path d="M1043.91 472.148C1043.37 467.083 1041.57 462.234 1038.67 458.045C1039.15 460.909 1039.63 463.771 1040.12 466.632C1039.52 466.806 1038.88 466.801 1038.28 466.617C1037.68 466.433 1037.15 466.079 1036.75 465.597C1035.97 464.621 1035.37 463.511 1034.99 462.321C1032.88 457.085 1030.12 452.135 1026.78 447.586C1014.96 446.601 1003.27 441.702 992.881 435.99C982.484 430.282 972.755 423.438 962.497 417.488C960.719 416.413 958.866 415.467 956.953 414.656C953.743 413.369 950.14 412.702 947.097 411.189C946.893 411.088 946.688 410.981 946.487 410.871C945.8 410.497 945.149 410.06 944.542 409.565C944.215 409.299 943.904 409.013 943.611 408.709C942.093 406.943 940.889 404.929 940.052 402.756C938.419 399.143 937.837 394.785 936.207 391.173C936.956 390.473 937.798 389.879 938.709 389.408H938.712C938.844 389.338 938.976 389.272 939.111 389.209C939.756 388.906 940.427 388.66 941.116 388.476C941.506 388.372 941.899 388.287 942.296 388.221C942.312 388.22 942.328 388.217 942.343 388.212C944.182 387.912 946.065 388.061 947.834 388.646C950.42 389.521 952.601 391.267 954.775 392.919C958.308 395.408 961.696 398.095 964.923 400.968C966.717 402.686 968.353 404.574 970.282 406.135C971.885 407.372 973.575 408.492 975.338 409.486C985.776 415.704 996.214 421.921 1006.65 428.136C1010.19 430.241 1013.72 432.347 1017.18 434.574C1022.43 437.96 1027.49 441.629 1032.54 445.295C1035.52 447.454 1038.5 449.613 1041.48 451.774C1042.46 452.397 1043.32 453.19 1044.01 454.115C1044.63 455.165 1045.01 456.336 1045.14 457.548C1045.88 462.444 1045.46 467.447 1043.91 472.148Z" fill="#FBBEBE"/>
<path d="M952.727 436.06C951.475 441.676 945.798 445.072 942.831 450.005C939.143 456.129 940.647 463.246 942.032 470.26C939.502 472.441 936.971 474.622 934.439 476.802C933.042 478.001 931.645 479.206 930.141 480.267C927.947 481.736 925.655 483.052 923.281 484.206C921.04 485.358 918.8 486.511 916.56 487.664C914.477 488.835 912.27 489.77 909.98 490.452C905.565 491.585 900.877 490.792 896.509 489.48C895.994 489.345 895.499 489.143 895.037 488.879C894.764 488.716 894.527 488.501 894.338 488.246C893.908 487.474 893.751 486.579 893.895 485.707C894.338 478.357 896.135 471.16 897.925 464.017C898.882 459.732 900.169 455.527 901.774 451.44C903.348 447.938 905.157 444.547 907.189 441.289C909.432 437.191 912.089 433.333 915.119 429.776C916.593 428.407 917.835 426.806 918.794 425.037C919.911 422.488 919.48 419.565 919.706 416.79C919.88 414.704 920.433 412.669 921.339 410.783V410.78C921.824 409.764 922.408 408.798 923.083 407.897C923.388 408.608 923.693 409.318 923.998 410.028C924.2 410.493 924.399 410.958 924.596 411.422C924.854 412.019 925.11 412.615 925.364 413.209C926.097 414.914 926.829 416.619 927.56 418.322C928.35 420.468 929.476 422.474 930.896 424.266C931.545 425.184 932.42 425.918 933.438 426.396C934.455 426.874 935.579 427.08 936.699 426.994C937.82 426.908 938.899 426.533 939.832 425.906C940.764 425.278 941.518 424.419 942.019 423.413C943.077 421.536 943.843 419.508 944.291 417.4C944.912 414.833 944.998 412.166 944.543 409.565C943.784 404.556 941.654 399.439 940.106 394.785C939.476 393.234 939.111 391.587 939.027 389.914C939.03 389.726 939.049 389.539 939.083 389.354C939.093 389.307 939.102 389.257 939.112 389.209C939.756 388.906 940.427 388.66 941.116 388.476C941.506 388.372 941.899 388.288 942.296 388.221C943.658 395.597 945.023 402.973 946.39 410.349C946.421 410.522 946.456 410.695 946.487 410.871C946.682 411.928 946.881 412.985 947.101 414.04C947.299 414.996 947.513 415.95 947.752 416.897L947.762 416.925C947.843 417.246 947.928 417.564 948.017 417.882L948.02 417.891C948.262 418.759 948.533 419.622 948.838 420.471C950.688 425.591 953.913 430.745 952.727 436.06Z" fill="#6C63FF"/>
<path d="M1028.07 514.993C1028.01 516.075 1028.22 517.154 1028.68 518.136C1029.84 520.259 1032.63 520.742 1035.04 520.941C1049.14 522.099 1063.31 521.667 1077.31 519.653C1078.07 519.601 1078.81 519.372 1079.46 518.985C1081.45 517.59 1080.22 514.19 1078.05 513.102C1075.88 512.013 1073.3 512.276 1070.92 511.804C1068.55 511.208 1066.29 510.23 1064.24 508.908C1059.4 506.13 1054.64 503.234 1049.94 500.22C1047.15 498.425 1043.85 496.51 1040.7 497.574C1032.18 500.458 1028.02 505.796 1028.07 514.993Z" fill="#3F3D56"/>
<path d="M924.187 408.989V408.992C924.165 409.124 924.143 409.253 924.114 409.383C924.08 409.597 924.039 409.814 923.998 410.028C923.608 412.026 923.13 414.014 922.579 415.99C921.068 421.45 919.045 426.821 917.038 432.114C911.651 446.305 906.263 460.497 900.873 474.691C899.514 478.265 898.158 481.843 896.613 485.345C896.097 486.513 895.565 487.689 895.036 488.879C893.142 493.136 891.323 497.532 890.719 502.063C890.156 505.045 890.091 508.1 890.527 511.103C891.131 514.074 892.935 516.975 895.757 518.073C897.135 518.611 899.108 519.332 898.731 520.764C898.526 521.55 897.632 521.934 896.83 522.066C895.77 522.235 894.687 522.169 893.656 521.872C892.625 521.575 891.671 521.055 890.864 520.348C889.357 519.011 888.199 516.931 886.194 516.708C884.807 516.557 883.529 517.387 882.258 517.969C877.072 520.339 871.031 518.681 865.584 516.997C866.012 514.791 868.227 513.338 870.427 512.897C872.626 512.453 874.901 512.768 877.145 512.708C877.863 512.747 878.576 512.563 879.187 512.183C879.734 511.68 880.118 511.025 880.288 510.301C881.733 506.019 882.808 501.621 883.501 497.155C884.225 492.488 884.527 487.749 885.559 483.139C886.361 479.543 887.601 476.06 888.664 472.529C890.721 465.26 892.41 457.892 893.724 450.452C894.389 447.362 894.865 444.233 895.15 441.085C895.329 438.473 895.244 435.849 895.496 433.246C895.918 429.861 896.625 426.517 897.607 423.25C898.57 419.685 899.532 416.122 900.493 412.561C901.918 407.29 903.447 401.815 907.06 397.718C908.314 396.276 909.852 395.106 911.577 394.283C913.302 393.459 915.178 392.998 917.088 392.929C917.804 392.928 918.519 393.005 919.218 393.158C919.335 393.187 919.451 393.215 919.567 393.247C920.33 393.446 921.062 393.749 921.742 394.147C922.856 393.439 923.422 393.687 924.162 394.779C924.81 395.935 925.115 397.251 925.043 398.574C925.105 402.065 924.818 405.555 924.187 408.989Z" fill="#FBBEBE"/>
<path d="M925.411 413.162L925.363 413.209L925.109 413.464L922.579 415.99L921.339 410.783L917.088 392.929C917.804 392.928 918.518 393.005 919.218 393.158C919.248 392.954 919.298 392.753 919.366 392.557L919.567 393.247L921.009 398.149L923.737 407.457L924.187 408.989V408.992L925.411 413.162Z" fill="#6C63FF"/>
<path d="M941.465 356.203C941.463 357.856 941.135 359.493 940.5 361.019C939.865 362.545 938.936 363.932 937.765 365.099C937.341 365.523 936.886 365.917 936.405 366.275C934.233 367.912 931.588 368.798 928.869 368.799H913.773C910.437 368.794 907.24 367.465 904.883 365.105C902.526 362.744 901.202 359.545 901.202 356.209C901.202 352.873 902.526 349.674 904.883 347.313C907.24 344.953 910.437 343.624 913.773 343.619H928.869C932.205 343.627 935.402 344.956 937.762 347.313C940.122 349.671 941.453 352.867 941.465 356.203Z" fill="#2F2E41"/>
<path d="M955.619 357.152C962.744 357.152 968.52 351.376 968.52 344.25C968.52 337.125 962.744 331.349 955.619 331.349C948.494 331.349 942.718 337.125 942.718 344.25C942.718 351.376 948.494 357.152 955.619 357.152Z" fill="#2F2E41"/>
<path opacity="0.1" d="M955.304 331.349C955.146 331.349 954.989 331.356 954.832 331.361C958.169 331.483 961.33 332.894 963.648 335.298C965.966 337.702 967.261 340.911 967.261 344.25C967.261 347.59 965.966 350.799 963.648 353.203C961.33 355.607 958.169 357.018 954.832 357.14C954.989 357.145 955.146 357.152 955.304 357.152C958.726 357.152 962.007 355.792 964.427 353.373C966.846 350.954 968.205 347.672 968.205 344.25C968.205 340.829 966.846 337.547 964.427 335.128C962.007 332.709 958.726 331.349 955.304 331.349Z" fill="black"/>
<path opacity="0.1" d="M893.945 331.349C894.103 331.349 894.26 331.356 894.417 331.361C891.079 331.483 887.919 332.894 885.601 335.298C883.283 337.702 881.987 340.911 881.987 344.25C881.987 347.59 883.283 350.799 885.601 353.203C887.919 355.607 891.079 357.018 894.417 357.14C894.26 357.145 894.103 357.152 893.945 357.152C890.525 357.149 887.246 355.788 884.829 353.369C882.412 350.95 881.055 347.67 881.055 344.25C881.055 340.831 882.412 337.551 884.829 335.132C887.246 332.713 890.525 331.352 893.945 331.349Z" fill="black"/>
<path opacity="0.1" d="M936.405 366.275C934.233 367.912 931.588 368.798 928.869 368.799H913.773C911.054 368.798 908.409 367.912 906.237 366.275H936.405Z" fill="black"/>
<path d="M1033.89 459.756C1033.89 459.756 1037.14 469.128 1040.12 466.632L1037.75 454.382L1033.89 459.756Z" fill="#FBBEBE"/>
<path d="M1429.67 745.55C1432.7 746.651 1435.94 747.033 1439.14 746.667C1442.35 746.301 1445.42 745.196 1448.12 743.439C1450.82 741.683 1453.08 739.322 1454.72 736.544C1456.35 733.766 1457.32 730.647 1457.54 727.431C1457.76 724.216 1457.24 720.992 1456 718.015C1454.77 715.038 1452.86 712.388 1450.42 710.275C1447.99 708.161 1445.1 706.642 1441.98 705.837C1438.86 705.032 1435.59 704.962 1432.44 705.634L1432.96 716.347L1427.89 707.166C1422.92 709.503 1419.08 713.72 1417.21 718.889C1416.55 720.699 1416.14 722.595 1416.01 724.519C1415.69 729.032 1416.85 733.527 1419.32 737.322C1421.78 741.117 1425.41 744.006 1429.67 745.55Z" fill="#57B894"/>
<path d="M1454.74 869.793C1452.96 860.683 1460.71 852.606 1468.37 847.357C1476.02 842.107 1484.97 836.949 1487.58 828.04C1491.34 815.236 1480.15 803.51 1471.45 793.398C1464.99 785.894 1459.44 777.651 1454.92 768.841C1453.11 765.308 1451.45 761.615 1450.97 757.674C1450.29 751.999 1452.11 746.351 1453.95 740.938C1460.07 722.903 1466.61 705.02 1473.57 687.288" stroke="#3F3D56" stroke-miterlimit="10"/>
<path d="M1430.52 742.792C1433.55 743.893 1436.8 744.276 1440 743.909C1443.2 743.543 1446.28 742.438 1448.98 740.682C1451.68 738.925 1453.94 736.564 1455.57 733.786C1457.21 731.008 1458.18 727.889 1458.4 724.673C1458.62 721.458 1458.09 718.234 1456.86 715.257C1455.62 712.28 1453.72 709.63 1451.28 707.517C1448.85 705.403 1445.96 703.884 1442.84 703.079C1439.71 702.274 1436.45 702.204 1433.3 702.876L1433.82 713.589L1428.75 704.408C1423.78 706.745 1419.93 710.962 1418.07 716.131C1417.4 717.941 1417 719.837 1416.87 721.761C1416.55 726.274 1417.71 730.769 1420.17 734.564C1422.64 738.359 1426.27 741.248 1430.52 742.792V742.792Z" stroke="#3F3D56" stroke-miterlimit="10"/>
<path d="M1452.2 683.588C1453.39 680.308 1455.39 677.38 1458 675.073C1460.62 672.767 1463.78 671.157 1467.18 670.391L1468.89 680.574L1472.07 669.879C1476.48 669.944 1480.76 671.41 1484.28 674.064C1487.81 676.718 1490.4 680.423 1491.68 684.645C1492.96 688.866 1492.86 693.386 1491.41 697.551C1489.95 701.715 1487.21 705.31 1483.58 707.815C1479.95 710.32 1475.62 711.607 1471.21 711.489C1466.8 711.371 1462.54 709.854 1459.05 707.158C1455.55 704.462 1453.01 700.726 1451.78 696.49C1450.55 692.253 1450.7 687.735 1452.2 683.588H1452.2Z" fill="#57B894"/>
<path d="M1453.34 679.911C1454.53 676.631 1456.53 673.703 1459.15 671.396C1461.76 669.09 1464.92 667.479 1468.32 666.713L1470.04 676.897L1473.21 666.201C1477.63 666.267 1481.9 667.732 1485.43 670.387C1488.95 673.041 1491.54 676.746 1492.82 680.968C1494.1 685.189 1494.01 689.709 1492.55 693.873C1491.1 698.038 1488.35 701.633 1484.72 704.138C1481.09 706.643 1476.76 707.93 1472.35 707.812C1467.94 707.694 1463.68 706.177 1460.19 703.481C1456.7 700.785 1454.15 697.049 1452.92 692.813C1451.69 688.576 1451.84 684.058 1453.34 679.911H1453.34Z" stroke="#3F3D56" stroke-miterlimit="10"/>
<path d="M1467.79 793.604C1472.6 795.347 1477.88 795.261 1482.62 793.363C1487.37 791.464 1491.25 787.886 1493.52 783.311C1495.8 778.736 1496.31 773.482 1494.96 768.553C1493.62 763.623 1490.5 759.362 1486.21 756.582L1483.77 764.801L1482.04 754.497C1482.02 754.489 1482.01 754.482 1481.99 754.477C1479.42 753.543 1476.69 753.125 1473.96 753.246C1471.23 753.367 1468.55 754.025 1466.07 755.182C1463.59 756.339 1461.37 757.973 1459.52 759.991C1457.68 762.008 1456.25 764.369 1455.32 766.94C1454.38 769.51 1453.97 772.238 1454.09 774.97C1454.21 777.701 1454.87 780.381 1456.03 782.857C1457.19 785.334 1458.82 787.557 1460.84 789.401C1462.86 791.245 1465.22 792.674 1467.79 793.604H1467.79Z" fill="#57B894"/>
<path d="M1468.78 789.88C1473.59 791.622 1478.87 791.536 1483.61 789.638C1488.36 787.74 1492.24 784.162 1494.51 779.586C1496.79 775.011 1497.3 769.758 1495.95 764.828C1494.61 759.899 1491.49 755.638 1487.2 752.857L1484.76 761.076L1483.03 750.772C1483.01 750.764 1483 750.758 1482.98 750.752C1480.41 749.818 1477.68 749.4 1474.95 749.521C1472.22 749.642 1469.54 750.3 1467.06 751.457C1464.58 752.615 1462.36 754.249 1460.51 756.266C1458.67 758.284 1457.24 760.645 1456.31 763.215C1455.37 765.785 1454.96 768.514 1455.08 771.245C1455.2 773.976 1455.86 776.656 1457.02 779.133C1458.18 781.609 1459.81 783.833 1461.83 785.677C1463.85 787.521 1466.21 788.949 1468.78 789.88H1468.78Z" stroke="#3F3D56" stroke-miterlimit="10"/>
<path d="M1446.13 828.167C1446.95 832.867 1449.37 837.14 1452.97 840.27C1456.58 843.4 1461.15 845.195 1465.91 845.356C1470.68 845.517 1475.36 844.032 1479.17 841.152C1482.97 838.272 1485.67 834.171 1486.81 829.537C1487.95 824.903 1487.47 820.018 1485.43 815.701C1483.4 811.384 1479.94 807.897 1475.64 805.826C1471.34 803.755 1466.46 803.225 1461.82 804.326C1457.17 805.426 1453.05 808.089 1450.14 811.87L1459.41 825.826L1446.74 818.418C1445.76 821.572 1445.55 824.915 1446.13 828.167Z" fill="#57B894"/>
<path d="M1446.98 825.409C1447.81 830.109 1450.23 834.382 1453.83 837.512C1457.43 840.642 1462 842.437 1466.77 842.598C1471.54 842.759 1476.22 841.274 1480.03 838.394C1483.83 835.514 1486.53 831.413 1487.67 826.779C1488.81 822.145 1488.32 817.26 1486.29 812.943C1484.26 808.626 1480.8 805.139 1476.5 803.068C1472.2 800.997 1467.32 800.467 1462.68 801.568C1458.03 802.668 1453.91 805.332 1451 809.112L1460.27 823.068L1447.6 815.661C1446.62 818.814 1446.41 822.157 1446.98 825.409V825.409Z" stroke="#3F3D56" stroke-miterlimit="10"/>
<path d="M431.811 796.249C433.802 796.972 435.933 797.224 438.037 796.983C440.141 796.743 442.16 796.017 443.936 794.862C445.711 793.708 447.195 792.157 448.269 790.332C449.343 788.507 449.978 786.457 450.125 784.345C450.272 782.232 449.925 780.114 449.114 778.158C448.303 776.202 447.048 774.461 445.449 773.073C443.85 771.684 441.95 770.686 439.9 770.157C437.849 769.628 435.704 769.582 433.632 770.024L433.975 777.062L430.645 771.03C427.377 772.566 424.852 775.336 423.625 778.732C423.19 779.922 422.925 781.167 422.839 782.431C422.629 785.397 423.391 788.35 425.01 790.843C426.629 793.337 429.017 795.234 431.811 796.249Z" fill="#57B894"/>
<path d="M448.287 877.879C447.112 871.893 452.205 866.587 457.236 863.138C462.267 859.688 468.146 856.3 469.863 850.446C472.33 842.034 464.981 834.33 459.261 827.686C455.018 822.756 451.373 817.34 448.405 811.551C447.114 809.278 446.235 806.794 445.808 804.215C445.357 800.486 446.555 796.775 447.762 793.219C451.783 781.37 456.081 769.62 460.658 757.969" stroke="#3F3D56" stroke-miterlimit="10"/>
<path d="M432.374 794.437C434.364 795.16 436.495 795.412 438.599 795.171C440.703 794.931 442.723 794.205 444.498 793.05C446.274 791.896 447.757 790.345 448.831 788.52C449.905 786.695 450.541 784.645 450.687 782.533C450.834 780.42 450.488 778.302 449.677 776.346C448.865 774.39 447.61 772.649 446.011 771.261C444.412 769.872 442.513 768.874 440.462 768.345C438.412 767.816 436.266 767.77 434.195 768.212L434.537 775.25L431.207 769.218C427.939 770.754 425.415 773.524 424.188 776.92C423.752 778.11 423.488 779.355 423.401 780.619C423.191 783.585 423.953 786.538 425.573 789.031C427.192 791.525 429.579 793.422 432.374 794.437V794.437Z" stroke="#3F3D56" stroke-miterlimit="10"/>
<path d="M446.616 755.539C447.397 753.384 448.708 751.46 450.428 749.945C452.148 748.429 454.222 747.371 456.458 746.868L457.584 753.559L459.671 746.531C462.569 746.574 465.379 747.537 467.694 749.281C470.009 751.025 471.711 753.459 472.552 756.233C473.394 759.007 473.332 761.976 472.376 764.712C471.42 767.449 469.619 769.81 467.233 771.456C464.847 773.102 462 773.948 459.103 773.87C456.205 773.793 453.407 772.796 451.113 771.025C448.819 769.254 447.147 766.799 446.338 764.016C445.53 761.232 445.627 758.264 446.616 755.539Z" fill="#57B894"/>
<path d="M447.367 753.123C448.148 750.968 449.459 749.044 451.179 747.529C452.899 746.013 454.973 744.955 457.209 744.452L458.335 751.143L460.422 744.115C463.32 744.158 466.13 745.121 468.445 746.865C470.76 748.609 472.462 751.043 473.303 753.817C474.145 756.591 474.083 759.56 473.127 762.296C472.171 765.033 470.37 767.394 467.984 769.04C465.598 770.686 462.751 771.532 459.854 771.454C456.956 771.377 454.158 770.38 451.864 768.609C449.57 766.838 447.898 764.383 447.089 761.599C446.281 758.816 446.378 755.848 447.367 753.123V753.123Z" stroke="#3F3D56" stroke-miterlimit="10"/>
<path d="M456.861 827.822C460.018 828.967 463.485 828.91 466.602 827.663C469.72 826.416 472.269 824.065 473.765 821.059C475.261 818.052 475.598 814.601 474.712 811.362C473.826 808.124 471.78 805.324 468.963 803.497L467.359 808.897L466.222 802.127C466.21 802.122 466.199 802.118 466.187 802.114C464.499 801.5 462.706 801.225 460.911 801.304C459.116 801.384 457.355 801.816 455.727 802.576C454.099 803.336 452.638 804.41 451.425 805.736C450.212 807.061 449.273 808.613 448.66 810.302C448.048 811.99 447.774 813.783 447.855 815.578C447.935 817.373 448.369 819.134 449.13 820.761C449.892 822.388 450.967 823.849 452.293 825.061C453.62 826.272 455.172 827.21 456.861 827.822Z" fill="#57B894"/>
<path d="M457.511 825.374C460.668 826.519 464.135 826.463 467.253 825.216C470.37 823.968 472.92 821.618 474.415 818.611C475.911 815.605 476.248 812.154 475.362 808.915C474.477 805.676 472.43 802.877 469.613 801.05L468.009 806.45L466.872 799.68C466.861 799.675 466.849 799.671 466.837 799.667C465.149 799.055 463.357 798.781 461.563 798.861C459.769 798.941 458.009 799.374 456.382 800.135C453.097 801.671 450.557 804.449 449.321 807.858C448.084 811.267 448.252 815.028 449.788 818.313C451.324 821.598 454.102 824.138 457.511 825.374V825.374Z" stroke="#3F3D56" stroke-miterlimit="10"/>
<path d="M442.626 850.53C443.169 853.618 444.757 856.426 447.124 858.482C449.491 860.538 452.493 861.718 455.627 861.823C458.76 861.929 461.835 860.954 464.335 859.061C466.835 857.169 468.608 854.475 469.358 851.43C470.107 848.385 469.786 845.176 468.45 842.339C467.114 839.503 464.843 837.212 462.018 835.852C459.193 834.491 455.986 834.143 452.935 834.866C449.885 835.589 447.175 837.339 445.261 839.822L451.353 848.992L443.029 844.125C442.384 846.197 442.245 848.393 442.626 850.53Z" fill="#57B894"/>
<path d="M443.189 848.718C443.731 851.806 445.319 854.613 447.686 856.67C450.053 858.726 453.056 859.906 456.189 860.011C459.323 860.117 462.397 859.142 464.897 857.249C467.397 855.357 469.171 852.663 469.92 849.618C470.669 846.573 470.349 843.364 469.013 840.527C467.676 837.691 465.405 835.4 462.58 834.039C459.756 832.679 456.549 832.331 453.498 833.054C450.447 833.777 447.737 835.527 445.824 838.01L451.916 847.18L443.591 842.313C442.946 844.385 442.808 846.581 443.189 848.718V848.718Z" stroke="#3F3D56" stroke-miterlimit="10"/>
<path d="M903.75 667.115C913.139 667.115 920.75 657.266 920.75 645.115C920.75 632.965 913.139 623.115 903.75 623.115C894.361 623.115 886.75 632.965 886.75 645.115C886.75 657.266 894.361 667.115 903.75 667.115Z" fill="#2F2E41"/>
<path d="M996.25 667.615C1005.64 667.615 1013.25 657.766 1013.25 645.615C1013.25 633.465 1005.64 623.615 996.25 623.615C986.861 623.615 979.25 633.465 979.25 645.615C979.25 657.766 986.861 667.615 996.25 667.615Z" fill="#2F2E41"/>
<path d="M983.25 710.615C983.25 720.555 969.37 728.615 952.25 728.615C935.13 728.615 921.25 720.555 921.25 710.615C921.25 702.005 931.66 694.805 945.57 693.045C947.785 692.753 950.016 692.61 952.25 692.615C955.993 692.603 959.726 693.006 963.38 693.816C975 696.406 983.25 702.955 983.25 710.615Z" fill="#2F2E41"/>
<path d="M907.75 662.115C917.139 662.115 924.75 652.266 924.75 640.115C924.75 627.965 917.139 618.115 907.75 618.115C898.361 618.115 890.75 627.965 890.75 640.115C890.75 652.266 898.361 662.115 907.75 662.115Z" stroke="#3F3D56" stroke-miterlimit="10"/>
<path d="M1000.25 662.615C1009.64 662.615 1017.25 652.766 1017.25 640.615C1017.25 628.465 1009.64 618.615 1000.25 618.615C990.861 618.615 983.25 628.465 983.25 640.615C983.25 652.766 990.861 662.615 1000.25 662.615Z" stroke="#3F3D56" stroke-miterlimit="10"/>
<path d="M956.25 723.615C973.371 723.615 987.25 715.557 987.25 705.615C987.25 695.674 973.371 687.615 956.25 687.615C939.129 687.615 925.25 695.674 925.25 705.615C925.25 715.557 939.129 723.615 956.25 723.615Z" stroke="#3F3D56" stroke-miterlimit="10"/>
<path d="M963.75 695.316C963.758 696.573 963.286 697.786 962.43 698.707C962.026 699.149 961.535 699.502 960.987 699.744C960.44 699.986 959.849 700.113 959.25 700.115H949.25C948.018 700.073 946.853 699.544 946.01 698.644C945.166 697.745 944.713 696.548 944.75 695.316C944.745 694.341 945.03 693.386 945.57 692.574C947.783 692.263 950.015 692.109 952.25 692.115C955.998 692.103 959.733 692.533 963.38 693.396C963.627 694.005 963.753 694.658 963.75 695.316Z" fill="white"/>
<path d="M907.75 639.115C910.511 639.115 912.75 636.877 912.75 634.115C912.75 631.354 910.511 629.115 907.75 629.115C904.989 629.115 902.75 631.354 902.75 634.115C902.75 636.877 904.989 639.115 907.75 639.115Z" fill="white"/>
<path d="M1000.75 639.115C1003.51 639.115 1005.75 636.877 1005.75 634.115C1005.75 631.354 1003.51 629.115 1000.75 629.115C997.989 629.115 995.75 631.354 995.75 634.115C995.75 636.877 997.989 639.115 1000.75 639.115Z" fill="white"/>
<path opacity="0.3" d="M1005.75 686.115C1008.51 686.115 1010.75 683.877 1010.75 681.115C1010.75 678.354 1008.51 676.115 1005.75 676.115C1002.99 676.115 1000.75 678.354 1000.75 681.115C1000.75 683.877 1002.99 686.115 1005.75 686.115Z" fill="#6C63FF"/>
<path opacity="0.3" d="M883.75 686.115C886.511 686.115 888.75 683.877 888.75 681.115C888.75 678.354 886.511 676.115 883.75 676.115C880.989 676.115 878.75 678.354 878.75 681.115C878.75 683.877 880.989 686.115 883.75 686.115Z" fill="#6C63FF"/>
</g>
<g clip-path="url(#clip1_29036_5946)">
<rect x="842.5" y="934.231" width="235" height="48" rx="8" fill="#5048E5"/>
<path d="M880.5 957.231H868.33L873.92 951.641L872.5 950.231L864.5 958.231L872.5 966.231L873.91 964.821L868.33 959.231H880.5V957.231Z" fill="white"/>
<path d="M900.884 955.806H902.898C902.562 953.664 900.708 952.173 898.295 952.173C895.44 952.173 893.299 954.272 893.299 957.787C893.299 961.239 895.344 963.38 898.354 963.38C901.055 963.38 902.988 961.644 902.988 958.831V957.521H898.562V959.066H901.076C901.044 960.621 900.005 961.606 898.365 961.606C896.538 961.606 895.286 960.237 895.286 957.766C895.286 955.31 896.559 953.947 898.322 953.947C899.638 953.947 900.533 954.65 900.884 955.806ZM908.383 963.391C910.78 963.391 912.303 961.702 912.303 959.172C912.303 956.637 910.78 954.943 908.383 954.943C905.986 954.943 904.462 956.637 904.462 959.172C904.462 961.702 905.986 963.391 908.383 963.391ZM908.394 961.846C907.067 961.846 906.417 960.664 906.417 959.167C906.417 957.67 907.067 956.471 908.394 956.471C909.699 956.471 910.348 957.67 910.348 959.167C910.348 960.664 909.699 961.846 908.394 961.846ZM917.746 963.231H919.642V961.942H919.754C920.058 962.539 920.692 963.375 922.098 963.375C924.026 963.375 925.47 961.846 925.47 959.151C925.47 956.423 923.983 954.943 922.093 954.943C920.649 954.943 920.047 955.811 919.754 956.402H919.674V952.322H917.746V963.231ZM919.637 959.14C919.637 957.553 920.319 956.525 921.56 956.525C922.844 956.525 923.504 957.617 923.504 959.14C923.504 960.674 922.833 961.793 921.56 961.793C920.329 961.793 919.637 960.727 919.637 959.14ZM929.463 963.396C930.747 963.396 931.514 962.794 931.866 962.107H931.93V963.231H933.783V957.755C933.783 955.593 932.02 954.943 930.459 954.943C928.739 954.943 927.418 955.71 926.992 957.201L928.792 957.457C928.984 956.898 929.527 956.418 930.47 956.418C931.365 956.418 931.855 956.876 931.855 957.681V957.713C931.855 958.267 931.274 958.293 929.831 958.448C928.244 958.618 926.725 959.092 926.725 960.935C926.725 962.544 927.903 963.396 929.463 963.396ZM929.964 961.979C929.16 961.979 928.584 961.612 928.584 960.903C928.584 960.163 929.229 959.854 930.092 959.731C930.598 959.662 931.61 959.534 931.86 959.332V960.296C931.86 961.207 931.125 961.979 929.964 961.979ZM939.291 963.391C941.347 963.391 942.658 962.171 942.796 960.434H940.953C940.788 961.313 940.154 961.819 939.307 961.819C938.103 961.819 937.326 960.813 937.326 959.14C937.326 957.489 938.119 956.498 939.307 956.498C940.234 956.498 940.804 957.095 940.953 957.883H942.796C942.663 956.109 941.278 954.943 939.28 954.943C936.883 954.943 935.371 956.674 935.371 959.172C935.371 961.649 936.846 963.391 939.291 963.391ZM944.379 963.231H946.308V960.482L947.011 959.731L949.514 963.231H951.821L948.465 958.581L951.634 955.049H949.381L946.441 958.336H946.308V952.322H944.379V963.231ZM960.726 955.049H959.112V953.089H957.184V955.049H956.022V956.541H957.184V961.09C957.173 962.629 958.291 963.385 959.74 963.343C960.289 963.327 960.667 963.22 960.875 963.151L960.55 961.644C960.443 961.67 960.225 961.718 959.985 961.718C959.501 961.718 959.112 961.548 959.112 960.77V956.541H960.726V955.049ZM965.819 963.391C968.216 963.391 969.74 961.702 969.74 959.172C969.74 956.637 968.216 954.943 965.819 954.943C963.422 954.943 961.899 956.637 961.899 959.172C961.899 961.702 963.422 963.391 965.819 963.391ZM965.83 961.846C964.504 961.846 963.854 960.664 963.854 959.167C963.854 957.67 964.504 956.471 965.83 956.471C967.135 956.471 967.785 957.67 967.785 959.167C967.785 960.664 967.135 961.846 965.83 961.846ZM978.879 963.231C982.203 963.231 984.174 961.175 984.174 957.766C984.174 954.367 982.203 952.322 978.954 952.322H975.182V963.231H978.879ZM977.159 961.521V954.032H978.842C981.058 954.032 982.214 955.268 982.214 957.766C982.214 960.275 981.058 961.521 978.783 961.521H977.159ZM988.321 963.396C989.604 963.396 990.372 962.794 990.723 962.107H990.787V963.231H992.641V957.755C992.641 955.593 990.878 954.943 989.317 954.943C987.596 954.943 986.275 955.71 985.849 957.201L987.65 957.457C987.841 956.898 988.385 956.418 989.328 956.418C990.222 956.418 990.712 956.876 990.712 957.681V957.713C990.712 958.267 990.132 958.293 988.688 958.448C987.101 958.618 985.583 959.092 985.583 960.935C985.583 962.544 986.76 963.396 988.321 963.396ZM988.821 961.979C988.017 961.979 987.442 961.612 987.442 960.903C987.442 960.163 988.086 959.854 988.949 959.731C989.455 959.662 990.467 959.534 990.718 959.332V960.296C990.718 961.207 989.983 961.979 988.821 961.979ZM1001.05 957.212C1000.78 955.827 999.672 954.943 997.754 954.943C995.783 954.943 994.441 955.912 994.446 957.425C994.441 958.618 995.176 959.406 996.748 959.731L998.143 960.024C998.894 960.189 999.246 960.493 999.246 960.957C999.246 961.516 998.639 961.937 997.722 961.937C996.838 961.937 996.263 961.553 996.098 960.818L994.217 960.999C994.457 962.501 995.72 963.391 997.728 963.391C999.773 963.391 1001.22 962.331 1001.22 960.781C1001.22 959.614 1000.47 958.9 998.921 958.565L997.525 958.267C996.694 958.08 996.364 957.792 996.369 957.318C996.364 956.764 996.977 956.381 997.781 956.381C998.671 956.381 999.139 956.866 999.288 957.404L1001.05 957.212ZM1004.74 958.437C1004.74 957.254 1005.48 956.573 1006.51 956.573C1007.52 956.573 1008.12 957.217 1008.12 958.32V963.231H1010.05V958.022C1010.05 956.045 1008.93 954.943 1007.23 954.943C1005.97 954.943 1005.17 955.513 1004.79 956.439H1004.7V952.322H1002.81V963.231H1004.74V958.437ZM1012.1 963.231H1013.99V961.942H1014.1C1014.41 962.539 1015.04 963.375 1016.45 963.375C1018.38 963.375 1019.82 961.846 1019.82 959.151C1019.82 956.423 1018.33 954.943 1016.44 954.943C1015 954.943 1014.4 955.811 1014.1 956.402H1014.02V952.322H1012.1V963.231ZM1013.99 959.14C1013.99 957.553 1014.67 956.525 1015.91 956.525C1017.19 956.525 1017.85 957.617 1017.85 959.14C1017.85 960.674 1017.18 961.793 1015.91 961.793C1014.68 961.793 1013.99 960.727 1013.99 959.14ZM1025.03 963.391C1027.43 963.391 1028.95 961.702 1028.95 959.172C1028.95 956.637 1027.43 954.943 1025.03 954.943C1022.63 954.943 1021.11 956.637 1021.11 959.172C1021.11 961.702 1022.63 963.391 1025.03 963.391ZM1025.04 961.846C1023.71 961.846 1023.06 960.664 1023.06 959.167C1023.06 957.67 1023.71 956.471 1025.04 956.471C1026.34 956.471 1026.99 957.67 1026.99 959.167C1026.99 960.664 1026.34 961.846 1025.04 961.846ZM1032.94 963.396C1034.22 963.396 1034.99 962.794 1035.34 962.107H1035.41V963.231H1037.26V957.755C1037.26 955.593 1035.5 954.943 1033.94 954.943C1032.22 954.943 1030.89 955.71 1030.47 957.201L1032.27 957.457C1032.46 956.898 1033 956.418 1033.95 956.418C1034.84 956.418 1035.33 956.876 1035.33 957.681V957.713C1035.33 958.267 1034.75 958.293 1033.31 958.448C1031.72 958.618 1030.2 959.092 1030.2 960.935C1030.2 962.544 1031.38 963.396 1032.94 963.396ZM1033.44 961.979C1032.64 961.979 1032.06 961.612 1032.06 960.903C1032.06 960.163 1032.71 959.854 1033.57 959.731C1034.07 959.662 1035.09 959.534 1035.34 959.332V960.296C1035.34 961.207 1034.6 961.979 1033.44 961.979ZM1039.2 963.231H1041.13V958.421C1041.13 957.382 1041.91 956.647 1042.97 956.647C1043.3 956.647 1043.7 956.706 1043.86 956.759V954.985C1043.69 954.953 1043.39 954.932 1043.17 954.932C1042.23 954.932 1041.45 955.465 1041.15 956.413H1041.07V955.049H1039.2V963.231ZM1047.85 963.375C1049.25 963.375 1049.89 962.539 1050.19 961.942H1050.31V963.231H1052.2V952.322H1050.27V956.402H1050.19C1049.9 955.811 1049.29 954.943 1047.85 954.943C1045.96 954.943 1044.47 956.423 1044.47 959.151C1044.47 961.846 1045.92 963.375 1047.85 963.375ZM1048.38 961.793C1047.11 961.793 1046.44 960.674 1046.44 959.14C1046.44 957.617 1047.1 956.525 1048.38 956.525C1049.62 956.525 1050.31 957.553 1050.31 959.14C1050.31 960.727 1049.61 961.793 1048.38 961.793Z" fill="white"/>
</g>
<defs>
<clipPath id="clip0_29036_5946">
<rect width="1074.39" height="584.231" fill="white" transform="translate(422.804 326)"/>
</clipPath>
<clipPath id="clip1_29036_5946">
<rect x="842.5" y="934.231" width="235" height="48" rx="8" fill="white"/>
</clipPath>
</defs>
</svg>
